solid OpenSCAD_Model
  facet normal 1 -0 0
    outer loop
      vertex -12.5 -23 10
      vertex -12.5 23 -8
      vertex -12.5 23 10
    endloop
  endfacet
  facet normal 1 0 0
    outer loop
      vertex -12.5 23 -8
      vertex -12.5 -23 10
      vertex -12.5 -23 -8
    endloop
  endfacet
  facet normal 0 0 -1
    outer loop
      vertex 12.5 -23 10
      vertex 4.5 -4.5 10
      vertex 12.5 23 10
    endloop
  endfacet
  facet normal 0 0 -1
    outer loop
      vertex 12.5 -23 10
      vertex -4.5 -4.5 10
      vertex 4.5 -4.5 10
    endloop
  endfacet
  facet normal -0 0 -1
    outer loop
      vertex -4.5 -4.5 10
      vertex -12.5 -23 10
      vertex -4.5 4.5 10
    endloop
  endfacet
  facet normal 0 0 -1
    outer loop
      vertex -12.5 -23 10
      vertex -4.5 -4.5 10
      vertex 12.5 -23 10
    endloop
  endfacet
  facet normal 0 0 -1
    outer loop
      vertex 4.5 4.5 10
      vertex 12.5 23 10
      vertex 4.5 -4.5 10
    endloop
  endfacet
  facet normal 0 0 -1
    outer loop
      vertex -4.5 4.5 10
      vertex 12.5 23 10
      vertex 4.5 4.5 10
    endloop
  endfacet
  facet normal 0 0 -1
    outer loop
      vertex -4.5 4.5 10
      vertex -12.5 23 10
      vertex 12.5 23 10
    endloop
  endfacet
  facet normal 0 0 -1
    outer loop
      vertex -12.5 23 10
      vertex -4.5 4.5 10
      vertex -12.5 -23 10
    endloop
  endfacet
  facet normal -1 0 0
    outer loop
      vertex 12.5 -23 -8
      vertex 12.5 23 10
      vertex 12.5 23 -8
    endloop
  endfacet
  facet normal -1 -0 0
    outer loop
      vertex 12.5 23 10
      vertex 12.5 -23 -8
      vertex 12.5 -23 10
    endloop
  endfacet
  facet normal 0 -1 0
    outer loop
      vertex -12.5 23 10
      vertex -4.5 23 2.5
      vertex 12.5 23 10
    endloop
  endfacet
  facet normal 0 -1 0
    outer loop
      vertex -12.5 23 -8
      vertex -4.5 23 2.5
      vertex -12.5 23 10
    endloop
  endfacet
  facet normal 0 -1 -0
    outer loop
      vertex -4.5 23 -2.5
      vertex -12.5 23 -8
      vertex 4.5 23 -2.5
    endloop
  endfacet
  facet normal 0 -1 -0
    outer loop
      vertex -4.5 23 2.5
      vertex -12.5 23 -8
      vertex -4.5 23 -2.5
    endloop
  endfacet
  facet normal 0 -1 0
    outer loop
      vertex 4.5 23 2.5
      vertex 12.5 23 10
      vertex -4.5 23 2.5
    endloop
  endfacet
  facet normal 0 -1 0
    outer loop
      vertex 12.5 23 -8
      vertex 4.5 23 2.5
      vertex 4.5 23 -2.5
    endloop
  endfacet
  facet normal 0 -1 0
    outer loop
      vertex 4.5 23 2.5
      vertex 12.5 23 -8
      vertex 12.5 23 10
    endloop
  endfacet
  facet normal 0 -1 0
    outer loop
      vertex 12.5 23 -8
      vertex 4.5 23 -2.5
      vertex -12.5 23 -8
    endloop
  endfacet
  facet normal 0 1 -0
    outer loop
      vertex 12.5 -23 -8
      vertex -12.5 -23 10
      vertex 12.5 -23 10
    endloop
  endfacet
  facet normal 0 1 0
    outer loop
      vertex -12.5 -23 10
      vertex 12.5 -23 -8
      vertex -12.5 -23 -8
    endloop
  endfacet
  facet normal 1 -0 0
    outer loop
      vertex -4.5 -4.5 12
      vertex -4.5 4.5 10
      vertex -4.5 4.5 12
    endloop
  endfacet
  facet normal 1 0 0
    outer loop
      vertex -4.5 4.5 10
      vertex -4.5 -4.5 12
      vertex -4.5 -4.5 10
    endloop
  endfacet
  facet normal -1 0 0
    outer loop
      vertex 4.5 -4.5 10
      vertex 4.5 4.5 12
      vertex 4.5 4.5 10
    endloop
  endfacet
  facet normal -1 -0 0
    outer loop
      vertex 4.5 4.5 12
      vertex 4.5 -4.5 10
      vertex 4.5 -4.5 12
    endloop
  endfacet
  facet normal 0 -1 0
    outer loop
      vertex -4.5 4.5 10
      vertex 4.5 4.5 12
      vertex -4.5 4.5 12
    endloop
  endfacet
  facet normal 0 -1 -0
    outer loop
      vertex 4.5 4.5 12
      vertex -4.5 4.5 10
      vertex 4.5 4.5 10
    endloop
  endfacet
  facet normal 0 1 -0
    outer loop
      vertex 4.5 -4.5 10
      vertex -4.5 -4.5 12
      vertex 4.5 -4.5 12
    endloop
  endfacet
  facet normal 0 1 0
    outer loop
      vertex -4.5 -4.5 12
      vertex 4.5 -4.5 10
      vertex -4.5 -4.5 10
    endloop
  endfacet
  facet normal 1 -0 0
    outer loop
      vertex -4.5 23 2.5
      vertex -4.5 24.5 -2.5
      vertex -4.5 24.5 2.5
    endloop
  endfacet
  facet normal 1 0 0
    outer loop
      vertex -4.5 24.5 -2.5
      vertex -4.5 23 2.5
      vertex -4.5 23 -2.5
    endloop
  endfacet
  facet normal 0 0 -1
    outer loop
      vertex -4.5 23 2.5
      vertex 4.5 24.5 2.5
      vertex 4.5 23 2.5
    endloop
  endfacet
  facet normal -0 0 -1
    outer loop
      vertex 4.5 24.5 2.5
      vertex -4.5 23 2.5
      vertex -4.5 24.5 2.5
    endloop
  endfacet
  facet normal -1 0 0
    outer loop
      vertex 4.5 23 -2.5
      vertex 4.5 24.5 2.5
      vertex 4.5 24.5 -2.5
    endloop
  endfacet
  facet normal -1 -0 0
    outer loop
      vertex 4.5 24.5 2.5
      vertex 4.5 23 -2.5
      vertex 4.5 23 2.5
    endloop
  endfacet
  facet normal -0 0 1
    outer loop
      vertex -4.5 24.5 -2.5
      vertex 4.5 23 -2.5
      vertex 4.5 24.5 -2.5
    endloop
  endfacet
  facet normal 0 0 1
    outer loop
      vertex 4.5 23 -2.5
      vertex -4.5 24.5 -2.5
      vertex -4.5 23 -2.5
    endloop
  endfacet
  facet normal -1 0 0
    outer loop
      vertex -14 -24.5 -8
      vertex -14 24.5 12
      vertex -14 24.5 -8
    endloop
  endfacet
  facet normal -1 -0 0
    outer loop
      vertex -14 24.5 12
      vertex -14 -24.5 -8
      vertex -14 -24.5 12
    endloop
  endfacet
  facet normal 0 0 1
    outer loop
      vertex 14 24.5 12
      vertex 4.5 4.5 12
      vertex 14 -24.5 12
    endloop
  endfacet
  facet normal 0 0 1
    outer loop
      vertex 14 24.5 12
      vertex -4.5 4.5 12
      vertex 4.5 4.5 12
    endloop
  endfacet
  facet normal 0 0 1
    outer loop
      vertex -4.5 4.5 12
      vertex -14 24.5 12
      vertex -4.5 -4.5 12
    endloop
  endfacet
  facet normal -0 0 1
    outer loop
      vertex -14 24.5 12
      vertex -4.5 4.5 12
      vertex 14 24.5 12
    endloop
  endfacet
  facet normal -0 0 1
    outer loop
      vertex 4.5 -4.5 12
      vertex 14 -24.5 12
      vertex 4.5 4.5 12
    endloop
  endfacet
  facet normal -0 0 1
    outer loop
      vertex -4.5 -4.5 12
      vertex 14 -24.5 12
      vertex 4.5 -4.5 12
    endloop
  endfacet
  facet normal 0 0 1
    outer loop
      vertex -4.5 -4.5 12
      vertex -14 -24.5 12
      vertex 14 -24.5 12
    endloop
  endfacet
  facet normal 0 0 1
    outer loop
      vertex -14 -24.5 12
      vertex -4.5 -4.5 12
      vertex -14 24.5 12
    endloop
  endfacet
  facet normal 1 -0 0
    outer loop
      vertex 14 -24.5 12
      vertex 14 24.5 -8
      vertex 14 24.5 12
    endloop
  endfacet
  facet normal 1 0 0
    outer loop
      vertex 14 24.5 -8
      vertex 14 -24.5 12
      vertex 14 -24.5 -8
    endloop
  endfacet
  facet normal 0 0 -1
    outer loop
      vertex 14 -24.5 -8
      vertex 12.5 -23 -8
      vertex 14 24.5 -8
    endloop
  endfacet
  facet normal 0 0 -1
    outer loop
      vertex 14 -24.5 -8
      vertex -12.5 -23 -8
      vertex 12.5 -23 -8
    endloop
  endfacet
  facet normal -0 0 -1
    outer loop
      vertex -12.5 -23 -8
      vertex -14 -24.5 -8
      vertex -12.5 23 -8
    endloop
  endfacet
  facet normal 0 0 -1
    outer loop
      vertex -14 -24.5 -8
      vertex -12.5 -23 -8
      vertex 14 -24.5 -8
    endloop
  endfacet
  facet normal 0 0 -1
    outer loop
      vertex 12.5 23 -8
      vertex 14 24.5 -8
      vertex 12.5 -23 -8
    endloop
  endfacet
  facet normal 0 0 -1
    outer loop
      vertex -12.5 23 -8
      vertex 14 24.5 -8
      vertex 12.5 23 -8
    endloop
  endfacet
  facet normal 0 0 -1
    outer loop
      vertex -12.5 23 -8
      vertex -14 24.5 -8
      vertex 14 24.5 -8
    endloop
  endfacet
  facet normal 0 0 -1
    outer loop
      vertex -14 24.5 -8
      vertex -12.5 23 -8
      vertex -14 -24.5 -8
    endloop
  endfacet
  facet normal 0 -1 0
    outer loop
      vertex -14 -24.5 -8
      vertex 14 -24.5 12
      vertex -14 -24.5 12
    endloop
  endfacet
  facet normal 0 -1 -0
    outer loop
      vertex 14 -24.5 12
      vertex -14 -24.5 -8
      vertex 14 -24.5 -8
    endloop
  endfacet
  facet normal 0 1 0
    outer loop
      vertex 14 24.5 12
      vertex 4.5 24.5 2.5
      vertex -14 24.5 12
    endloop
  endfacet
  facet normal 0 1 -0
    outer loop
      vertex 14 24.5 -8
      vertex 4.5 24.5 2.5
      vertex 14 24.5 12
    endloop
  endfacet
  facet normal 0 1 0
    outer loop
      vertex 4.5 24.5 -2.5
      vertex 14 24.5 -8
      vertex -4.5 24.5 -2.5
    endloop
  endfacet
  facet normal 0 1 0
    outer loop
      vertex 4.5 24.5 2.5
      vertex 14 24.5 -8
      vertex 4.5 24.5 -2.5
    endloop
  endfacet
  facet normal 0 1 -0
    outer loop
      vertex -4.5 24.5 2.5
      vertex -14 24.5 12
      vertex 4.5 24.5 2.5
    endloop
  endfacet
  facet normal 0 1 0
    outer loop
      vertex -14 24.5 -8
      vertex -4.5 24.5 2.5
      vertex -4.5 24.5 -2.5
    endloop
  endfacet
  facet normal 0 1 0
    outer loop
      vertex -4.5 24.5 2.5
      vertex -14 24.5 -8
      vertex -14 24.5 12
    endloop
  endfacet
  facet normal 0 1 0
    outer loop
      vertex -14 24.5 -8
      vertex -4.5 24.5 -2.5
      vertex 14 24.5 -8
    endloop
  endfacet
  facet normal -1 0 0
    outer loop
      vertex 28 -22.5 -1
      vertex 28 22.5 1
      vertex 28 22.5 -1
    endloop
  endfacet
  facet normal -1 -0 0
    outer loop
      vertex 28 22.5 1
      vertex 28 -22.5 -1
      vertex 28 -22.5 1
    endloop
  endfacet
  facet normal -0 0 1
    outer loop
      vertex 28 22.5 1
      vertex 52 -22.5 1
      vertex 52 22.5 1
    endloop
  endfacet
  facet normal 0 0 1
    outer loop
      vertex 52 -22.5 1
      vertex 28 22.5 1
      vertex 28 -22.5 1
    endloop
  endfacet
  facet normal 1 -0 0
    outer loop
      vertex 52 -22.5 1
      vertex 52 22.5 -1
      vertex 52 22.5 1
    endloop
  endfacet
  facet normal 1 0 0
    outer loop
      vertex 52 22.5 -1
      vertex 52 -22.5 1
      vertex 52 -22.5 -1
    endloop
  endfacet
  facet normal 0 1 -0
    outer loop
      vertex 52 22.5 -1
      vertex 28 22.5 1
      vertex 52 22.5 1
    endloop
  endfacet
  facet normal 0 1 0
    outer loop
      vertex 28 22.5 1
      vertex 52 22.5 -1
      vertex 28 22.5 -1
    endloop
  endfacet
  facet normal 0 0 1
    outer loop
      vertex 54 24.5 -1
      vertex 52 22.5 -1
      vertex 54 -24.5 -1
    endloop
  endfacet
  facet normal 0 0 1
    outer loop
      vertex 54 24.5 -1
      vertex 28 22.5 -1
      vertex 52 22.5 -1
    endloop
  endfacet
  facet normal 0 0 1
    outer loop
      vertex 28 22.5 -1
      vertex 26 24.5 -1
      vertex 28 -22.5 -1
    endloop
  endfacet
  facet normal -0 0 1
    outer loop
      vertex 26 24.5 -1
      vertex 28 22.5 -1
      vertex 54 24.5 -1
    endloop
  endfacet
  facet normal -0 0 1
    outer loop
      vertex 52 -22.5 -1
      vertex 54 -24.5 -1
      vertex 52 22.5 -1
    endloop
  endfacet
  facet normal -0 0 1
    outer loop
      vertex 28 -22.5 -1
      vertex 54 -24.5 -1
      vertex 52 -22.5 -1
    endloop
  endfacet
  facet normal 0 0 1
    outer loop
      vertex 28 -22.5 -1
      vertex 26 -24.5 -1
      vertex 54 -24.5 -1
    endloop
  endfacet
  facet normal 0 0 1
    outer loop
      vertex 26 -24.5 -1
      vertex 28 -22.5 -1
      vertex 26 24.5 -1
    endloop
  endfacet
  facet normal 0 -1 0
    outer loop
      vertex 28 -22.5 -1
      vertex 52 -22.5 1
      vertex 28 -22.5 1
    endloop
  endfacet
  facet normal 0 -1 -0
    outer loop
      vertex 52 -22.5 1
      vertex 28 -22.5 -1
      vertex 52 -22.5 -1
    endloop
  endfacet
  facet normal -1 0 0
    outer loop
      vertex 26 -24.5 -3
      vertex 26 24.5 -1
      vertex 26 24.5 -3
    endloop
  endfacet
  facet normal -1 -0 0
    outer loop
      vertex 26 24.5 -1
      vertex 26 -24.5 -3
      vertex 26 -24.5 -1
    endloop
  endfacet
  facet normal 1 -0 0
    outer loop
      vertex 54 -24.5 -1
      vertex 54 24.5 -3
      vertex 54 24.5 -1
    endloop
  endfacet
  facet normal 1 0 0
    outer loop
      vertex 54 24.5 -3
      vertex 54 -24.5 -1
      vertex 54 -24.5 -3
    endloop
  endfacet
  facet normal 0 0 -1
    outer loop
      vertex 26 -24.5 -3
      vertex 54 24.5 -3
      vertex 54 -24.5 -3
    endloop
  endfacet
  facet normal -0 0 -1
    outer loop
      vertex 54 24.5 -3
      vertex 26 -24.5 -3
      vertex 26 24.5 -3
    endloop
  endfacet
  facet normal 0 -1 0
    outer loop
      vertex 26 -24.5 -3
      vertex 54 -24.5 -1
      vertex 26 -24.5 -1
    endloop
  endfacet
  facet normal 0 -1 -0
    outer loop
      vertex 54 -24.5 -1
      vertex 26 -24.5 -3
      vertex 54 -24.5 -3
    endloop
  endfacet
  facet normal 0 1 -0
    outer loop
      vertex 54 24.5 -3
      vertex 26 24.5 -1
      vertex 54 24.5 -1
    endloop
  endfacet
  facet normal 0 1 0
    outer loop
      vertex 26 24.5 -1
      vertex 54 24.5 -3
      vertex 26 24.5 -3
    endloop
  endfacet
endsolid OpenSCAD_Model
