solid OpenSCAD_Model
  facet normal -0.866025 0.5 0
    outer loop
      vertex -10.049 4.4741 -12
      vertex -8.89919 6.46564 -1.08984e-15
      vertex -8.89919 6.46564 -12
    endloop
  endfacet
  facet normal -0.866025 0.5 0
    outer loop
      vertex -8.89919 6.46564 -1.08984e-15
      vertex -10.049 4.4741 -12
      vertex -10.049 4.4741 -1.23065e-15
    endloop
  endfacet
  facet normal -0.951057 0.309017 0
    outer loop
      vertex -10.7596 2.28703 -12
      vertex -10.049 4.4741 -1.23065e-15
      vertex -10.049 4.4741 -12
    endloop
  endfacet
  facet normal -0.951057 0.309017 0
    outer loop
      vertex -10.049 4.4741 -1.23065e-15
      vertex -10.7596 2.28703 -12
      vertex -10.7596 2.28703 -1.31767e-15
    endloop
  endfacet
  facet normal -0.406737 0.913545 0
    outer loop
      vertex -3.39919 10.4616 -12
      vertex -5.5 9.52628 -6.73556e-16
      vertex -3.39919 10.4616 -4.1628e-16
    endloop
  endfacet
  facet normal -0.406737 0.913545 0
    outer loop
      vertex -5.5 9.52628 -6.73556e-16
      vertex -3.39919 10.4616 -12
      vertex -5.5 9.52628 -12
    endloop
  endfacet
  facet normal 0.207912 0.978148 -0
    outer loop
      vertex 3.39919 10.4616 -12
      vertex 1.14981 10.9397 1.40811e-16
      vertex 3.39919 10.4616 4.1628e-16
    endloop
  endfacet
  facet normal 0.207912 0.978148 0
    outer loop
      vertex 1.14981 10.9397 1.40811e-16
      vertex 3.39919 10.4616 -12
      vertex 1.14981 10.9397 -12
    endloop
  endfacet
  facet normal 0.866025 0.5 0
    outer loop
      vertex 10.049 4.4741 1.23065e-15
      vertex 8.89919 6.46564 -12
      vertex 8.89919 6.46564 1.08984e-15
    endloop
  endfacet
  facet normal 0.866025 0.5 0
    outer loop
      vertex 8.89919 6.46564 -12
      vertex 10.049 4.4741 1.23065e-15
      vertex 10.049 4.4741 -12
    endloop
  endfacet
  facet normal -0.994522 -0.104529 0
    outer loop
      vertex -10.7596 -2.28703 -12
      vertex -11 0 -1.34711e-15
      vertex -11 0 -12
    endloop
  endfacet
  facet normal -0.994522 -0.104529 0
    outer loop
      vertex -11 0 -1.34711e-15
      vertex -10.7596 -2.28703 -12
      vertex -10.7596 -2.28703 -1.31767e-15
    endloop
  endfacet
  facet normal -0.743145 0.66913 0
    outer loop
      vertex -8.89919 6.46564 -12
      vertex -7.36044 8.17459 -9.01394e-16
      vertex -7.36044 8.17459 -12
    endloop
  endfacet
  facet normal -0.743145 0.66913 0
    outer loop
      vertex -7.36044 8.17459 -9.01394e-16
      vertex -8.89919 6.46564 -12
      vertex -8.89919 6.46564 -1.08984e-15
    endloop
  endfacet
  facet normal 0 1 -0
    outer loop
      vertex 1.14981 10.9397 -12
      vertex -1.14981 10.9397 -1.40811e-16
      vertex 1.14981 10.9397 1.40811e-16
    endloop
  endfacet
  facet normal 0 1 0
    outer loop
      vertex -1.14981 10.9397 -1.40811e-16
      vertex 1.14981 10.9397 -12
      vertex -1.14981 10.9397 -12
    endloop
  endfacet
  facet normal -0.587785 0.809017 0
    outer loop
      vertex -5.5 9.52628 -12
      vertex -7.36044 8.17459 -9.01394e-16
      vertex -5.5 9.52628 -6.73556e-16
    endloop
  endfacet
  facet normal -0.587785 0.809017 0
    outer loop
      vertex -7.36044 8.17459 -9.01394e-16
      vertex -5.5 9.52628 -12
      vertex -7.36044 8.17459 -12
    endloop
  endfacet
  facet normal 0.994522 0.104529 0
    outer loop
      vertex 11 0 1.34711e-15
      vertex 10.7596 2.28703 -12
      vertex 10.7596 2.28703 1.31767e-15
    endloop
  endfacet
  facet normal 0.994522 0.104529 0
    outer loop
      vertex 10.7596 2.28703 -12
      vertex 11 0 1.34711e-15
      vertex 11 0 -12
    endloop
  endfacet
  facet normal 0.743145 0.66913 0
    outer loop
      vertex 8.89919 6.46564 1.08984e-15
      vertex 7.36044 8.17459 -12
      vertex 7.36044 8.17459 9.01394e-16
    endloop
  endfacet
  facet normal 0.743145 0.66913 0
    outer loop
      vertex 7.36044 8.17459 -12
      vertex 8.89919 6.46564 1.08984e-15
      vertex 8.89919 6.46564 -12
    endloop
  endfacet
  facet normal 0.406737 0.913545 -0
    outer loop
      vertex 5.5 9.52628 -12
      vertex 3.39919 10.4616 4.1628e-16
      vertex 5.5 9.52628 6.73556e-16
    endloop
  endfacet
  facet normal 0.406737 0.913545 0
    outer loop
      vertex 3.39919 10.4616 4.1628e-16
      vertex 5.5 9.52628 -12
      vertex 3.39919 10.4616 -12
    endloop
  endfacet
  facet normal 0.587785 0.809017 -0
    outer loop
      vertex 7.36044 8.17459 -12
      vertex 5.5 9.52628 6.73556e-16
      vertex 7.36044 8.17459 9.01394e-16
    endloop
  endfacet
  facet normal 0.587785 0.809017 0
    outer loop
      vertex 5.5 9.52628 6.73556e-16
      vertex 7.36044 8.17459 -12
      vertex 5.5 9.52628 -12
    endloop
  endfacet
  facet normal -0.994522 0.104529 0
    outer loop
      vertex -11 0 -12
      vertex -10.7596 2.28703 -1.31767e-15
      vertex -10.7596 2.28703 -12
    endloop
  endfacet
  facet normal -0.994522 0.104529 0
    outer loop
      vertex -10.7596 2.28703 -1.31767e-15
      vertex -11 0 -12
      vertex -11 0 -1.34711e-15
    endloop
  endfacet
  facet normal -0.951057 -0.309017 0
    outer loop
      vertex -10.049 -4.4741 -12
      vertex -10.7596 -2.28703 -1.31767e-15
      vertex -10.7596 -2.28703 -12
    endloop
  endfacet
  facet normal -0.951057 -0.309017 0
    outer loop
      vertex -10.7596 -2.28703 -1.31767e-15
      vertex -10.049 -4.4741 -12
      vertex -10.049 -4.4741 -1.23065e-15
    endloop
  endfacet
  facet normal 0.587785 -0.809017 0
    outer loop
      vertex 5.5 -9.52628 -12
      vertex 7.36044 -8.17459 9.01394e-16
      vertex 5.5 -9.52628 6.73556e-16
    endloop
  endfacet
  facet normal 0.587785 -0.809017 0
    outer loop
      vertex 7.36044 -8.17459 9.01394e-16
      vertex 5.5 -9.52628 -12
      vertex 7.36044 -8.17459 -12
    endloop
  endfacet
  facet normal 0.866025 -0.5 0
    outer loop
      vertex 8.89919 -6.46564 1.08984e-15
      vertex 10.049 -4.4741 -12
      vertex 10.049 -4.4741 1.23065e-15
    endloop
  endfacet
  facet normal 0.866025 -0.5 0
    outer loop
      vertex 10.049 -4.4741 -12
      vertex 8.89919 -6.46564 1.08984e-15
      vertex 8.89919 -6.46564 -12
    endloop
  endfacet
  facet normal -0.207912 0.978148 0
    outer loop
      vertex -1.14981 10.9397 -12
      vertex -3.39919 10.4616 -4.1628e-16
      vertex -1.14981 10.9397 -1.40811e-16
    endloop
  endfacet
  facet normal -0.207912 0.978148 0
    outer loop
      vertex -3.39919 10.4616 -4.1628e-16
      vertex -1.14981 10.9397 -12
      vertex -3.39919 10.4616 -12
    endloop
  endfacet
  facet normal 0 0 -1
    outer loop
      vertex 10.7596 -2.28703 -12
      vertex 10.7596 2.28703 -12
      vertex 11 0 -12
    endloop
  endfacet
  facet normal 0 0 -1
    outer loop
      vertex 10.049 -4.4741 -12
      vertex 10.7596 2.28703 -12
      vertex 10.7596 -2.28703 -12
    endloop
  endfacet
  facet normal 0 0 -1
    outer loop
      vertex 10.049 -4.4741 -12
      vertex 10.049 4.4741 -12
      vertex 10.7596 2.28703 -12
    endloop
  endfacet
  facet normal 0 0 -1
    outer loop
      vertex 8.89919 -6.46564 -12
      vertex 10.049 4.4741 -12
      vertex 10.049 -4.4741 -12
    endloop
  endfacet
  facet normal 0 0 -1
    outer loop
      vertex 8.89919 -6.46564 -12
      vertex 8.89919 6.46564 -12
      vertex 10.049 4.4741 -12
    endloop
  endfacet
  facet normal 0 0 -1
    outer loop
      vertex 7.36044 -8.17459 -12
      vertex 8.89919 6.46564 -12
      vertex 8.89919 -6.46564 -12
    endloop
  endfacet
  facet normal 0 0 -1
    outer loop
      vertex 7.36044 -8.17459 -12
      vertex 7.36044 8.17459 -12
      vertex 8.89919 6.46564 -12
    endloop
  endfacet
  facet normal 0 0 -1
    outer loop
      vertex 5.5 -9.52628 -12
      vertex 7.36044 8.17459 -12
      vertex 7.36044 -8.17459 -12
    endloop
  endfacet
  facet normal 0 0 -1
    outer loop
      vertex 5.5 -9.52628 -12
      vertex 5.5 9.52628 -12
      vertex 7.36044 8.17459 -12
    endloop
  endfacet
  facet normal 0 0 -1
    outer loop
      vertex 3.39919 -10.4616 -12
      vertex 5.5 9.52628 -12
      vertex 5.5 -9.52628 -12
    endloop
  endfacet
  facet normal 0 0 -1
    outer loop
      vertex 3.39919 -10.4616 -12
      vertex 3.39919 10.4616 -12
      vertex 5.5 9.52628 -12
    endloop
  endfacet
  facet normal 0 0 -1
    outer loop
      vertex 1.14981 -10.9397 -12
      vertex 3.39919 10.4616 -12
      vertex 3.39919 -10.4616 -12
    endloop
  endfacet
  facet normal 0 0 -1
    outer loop
      vertex 1.14981 -10.9397 -12
      vertex 1.14981 10.9397 -12
      vertex 3.39919 10.4616 -12
    endloop
  endfacet
  facet normal 0 0 -1
    outer loop
      vertex -1.14981 -10.9397 -12
      vertex 1.14981 10.9397 -12
      vertex 1.14981 -10.9397 -12
    endloop
  endfacet
  facet normal 0 0 -1
    outer loop
      vertex -1.14981 -10.9397 -12
      vertex -1.14981 10.9397 -12
      vertex 1.14981 10.9397 -12
    endloop
  endfacet
  facet normal 0 0 -1
    outer loop
      vertex -3.39919 -10.4616 -12
      vertex -1.14981 10.9397 -12
      vertex -1.14981 -10.9397 -12
    endloop
  endfacet
  facet normal 0 0 -1
    outer loop
      vertex -3.39919 -10.4616 -12
      vertex -3.39919 10.4616 -12
      vertex -1.14981 10.9397 -12
    endloop
  endfacet
  facet normal 0 0 -1
    outer loop
      vertex -5.5 -9.52628 -12
      vertex -3.39919 10.4616 -12
      vertex -3.39919 -10.4616 -12
    endloop
  endfacet
  facet normal 0 0 -1
    outer loop
      vertex -5.5 -9.52628 -12
      vertex -5.5 9.52628 -12
      vertex -3.39919 10.4616 -12
    endloop
  endfacet
  facet normal 0 0 -1
    outer loop
      vertex -7.36044 -8.17459 -12
      vertex -5.5 9.52628 -12
      vertex -5.5 -9.52628 -12
    endloop
  endfacet
  facet normal 0 0 -1
    outer loop
      vertex -7.36044 -8.17459 -12
      vertex -7.36044 8.17459 -12
      vertex -5.5 9.52628 -12
    endloop
  endfacet
  facet normal 0 0 -1
    outer loop
      vertex -8.89919 -6.46564 -12
      vertex -7.36044 8.17459 -12
      vertex -7.36044 -8.17459 -12
    endloop
  endfacet
  facet normal 0 0 -1
    outer loop
      vertex -8.89919 -6.46564 -12
      vertex -8.89919 6.46564 -12
      vertex -7.36044 8.17459 -12
    endloop
  endfacet
  facet normal 0 0 -1
    outer loop
      vertex -10.049 -4.4741 -12
      vertex -8.89919 6.46564 -12
      vertex -8.89919 -6.46564 -12
    endloop
  endfacet
  facet normal 0 0 -1
    outer loop
      vertex -10.049 -4.4741 -12
      vertex -10.049 4.4741 -12
      vertex -8.89919 6.46564 -12
    endloop
  endfacet
  facet normal 0 0 -1
    outer loop
      vertex -10.7596 -2.28703 -12
      vertex -10.049 4.4741 -12
      vertex -10.049 -4.4741 -12
    endloop
  endfacet
  facet normal 0 0 -1
    outer loop
      vertex -10.7596 -2.28703 -12
      vertex -10.7596 2.28703 -12
      vertex -10.049 4.4741 -12
    endloop
  endfacet
  facet normal 0 -0 -1
    outer loop
      vertex -10.7596 2.28703 -12
      vertex -10.7596 -2.28703 -12
      vertex -11 0 -12
    endloop
  endfacet
  facet normal 0.951057 0.309017 0
    outer loop
      vertex 10.7596 2.28703 1.31767e-15
      vertex 10.049 4.4741 -12
      vertex 10.049 4.4741 1.23065e-15
    endloop
  endfacet
  facet normal 0.951057 0.309017 0
    outer loop
      vertex 10.049 4.4741 -12
      vertex 10.7596 2.28703 1.31767e-15
      vertex 10.7596 2.28703 -12
    endloop
  endfacet
  facet normal 0.994522 -0.104529 0
    outer loop
      vertex 10.7596 -2.28703 1.31767e-15
      vertex 11 0 -12
      vertex 11 0 1.34711e-15
    endloop
  endfacet
  facet normal 0.994522 -0.104529 0
    outer loop
      vertex 11 0 -12
      vertex 10.7596 -2.28703 1.31767e-15
      vertex 10.7596 -2.28703 -12
    endloop
  endfacet
  facet normal 0.743145 -0.66913 0
    outer loop
      vertex 7.36044 -8.17459 9.01394e-16
      vertex 8.89919 -6.46564 -12
      vertex 8.89919 -6.46564 1.08984e-15
    endloop
  endfacet
  facet normal 0.743145 -0.66913 0
    outer loop
      vertex 8.89919 -6.46564 -12
      vertex 7.36044 -8.17459 9.01394e-16
      vertex 7.36044 -8.17459 -12
    endloop
  endfacet
  facet normal -0.207912 -0.978148 0
    outer loop
      vertex -3.39919 -10.4616 -12
      vertex -1.14981 -10.9397 -1.40811e-16
      vertex -3.39919 -10.4616 -4.1628e-16
    endloop
  endfacet
  facet normal -0.207912 -0.978148 -0
    outer loop
      vertex -1.14981 -10.9397 -1.40811e-16
      vertex -3.39919 -10.4616 -12
      vertex -1.14981 -10.9397 -12
    endloop
  endfacet
  facet normal -0.406737 -0.913545 0
    outer loop
      vertex -5.5 -9.52628 -12
      vertex -3.39919 -10.4616 -4.1628e-16
      vertex -5.5 -9.52628 -6.73556e-16
    endloop
  endfacet
  facet normal -0.406737 -0.913545 -0
    outer loop
      vertex -3.39919 -10.4616 -4.1628e-16
      vertex -5.5 -9.52628 -12
      vertex -3.39919 -10.4616 -12
    endloop
  endfacet
  facet normal -0.743145 -0.66913 0
    outer loop
      vertex -7.36044 -8.17459 -12
      vertex -8.89919 -6.46564 -1.08984e-15
      vertex -8.89919 -6.46564 -12
    endloop
  endfacet
  facet normal -0.743145 -0.66913 0
    outer loop
      vertex -8.89919 -6.46564 -1.08984e-15
      vertex -7.36044 -8.17459 -12
      vertex -7.36044 -8.17459 -9.01394e-16
    endloop
  endfacet
  facet normal -0.587785 -0.809017 0
    outer loop
      vertex -7.36044 -8.17459 -12
      vertex -5.5 -9.52628 -6.73556e-16
      vertex -7.36044 -8.17459 -9.01394e-16
    endloop
  endfacet
  facet normal -0.587785 -0.809017 -0
    outer loop
      vertex -5.5 -9.52628 -6.73556e-16
      vertex -7.36044 -8.17459 -12
      vertex -5.5 -9.52628 -12
    endloop
  endfacet
  facet normal -0.866025 -0.5 0
    outer loop
      vertex -8.89919 -6.46564 -12
      vertex -10.049 -4.4741 -1.23065e-15
      vertex -10.049 -4.4741 -12
    endloop
  endfacet
  facet normal -0.866025 -0.5 0
    outer loop
      vertex -10.049 -4.4741 -1.23065e-15
      vertex -8.89919 -6.46564 -12
      vertex -8.89919 -6.46564 -1.08984e-15
    endloop
  endfacet
  facet normal 0 -1 0
    outer loop
      vertex -1.14981 -10.9397 -12
      vertex 1.14981 -10.9397 1.40811e-16
      vertex -1.14981 -10.9397 -1.40811e-16
    endloop
  endfacet
  facet normal 0 -1 -0
    outer loop
      vertex 1.14981 -10.9397 1.40811e-16
      vertex -1.14981 -10.9397 -12
      vertex 1.14981 -10.9397 -12
    endloop
  endfacet
  facet normal 0.207912 -0.978148 0
    outer loop
      vertex 1.14981 -10.9397 -12
      vertex 3.39919 -10.4616 4.1628e-16
      vertex 1.14981 -10.9397 1.40811e-16
    endloop
  endfacet
  facet normal 0.207912 -0.978148 0
    outer loop
      vertex 3.39919 -10.4616 4.1628e-16
      vertex 1.14981 -10.9397 -12
      vertex 3.39919 -10.4616 -12
    endloop
  endfacet
  facet normal -1.22465e-16 -2.24709e-23 1
    outer loop
      vertex 10 0 1.22465e-15
      vertex 11 0 1.34711e-15
      vertex 10.7596 2.28703 1.31767e-15
    endloop
  endfacet
  facet normal -1.22465e-16 2.40925e-23 1
    outer loop
      vertex 9.78148 2.07912 1.19789e-15
      vertex 10.7596 2.28703 1.31767e-15
      vertex 10.049 4.4741 1.23065e-15
    endloop
  endfacet
  facet normal -1.22465e-16 2.24709e-23 1
    outer loop
      vertex 11 0 1.34711e-15
      vertex 10 0 1.22465e-15
      vertex 10.7596 -2.28703 1.31767e-15
    endloop
  endfacet
  facet normal -1.22465e-16 4.9951e-24 1
    outer loop
      vertex 9.78148 -2.07912 1.19789e-15
      vertex 10.7596 -2.28703 1.31767e-15
      vertex 10 0 1.22465e-15
    endloop
  endfacet
  facet normal -1.22465e-16 -4.9951e-24 1
    outer loop
      vertex 10.7596 2.28703 1.31767e-15
      vertex 9.78148 2.07912 1.19789e-15
      vertex 10 0 1.22465e-15
    endloop
  endfacet
  facet normal -1.22465e-16 2.01596e-23 1
    outer loop
      vertex 10.049 4.4741 1.23065e-15
      vertex 9.13545 4.06737 1.11877e-15
      vertex 9.78148 2.07912 1.19789e-15
    endloop
  endfacet
  facet normal -1.22465e-16 -2.19954e-23 1
    outer loop
      vertex 8.89919 6.46564 1.08984e-15
      vertex 9.13545 4.06737 1.11877e-15
      vertex 10.049 4.4741 1.23065e-15
    endloop
  endfacet
  facet normal -1.22465e-16 -2.7498e-23 1
    outer loop
      vertex 8.89919 6.46564 1.08984e-15
      vertex 8.09017 5.87785 9.9076e-16
      vertex 9.13545 4.06737 1.11877e-15
    endloop
  endfacet
  facet normal -1.22465e-16 -3.18982e-23 1
    outer loop
      vertex 7.36044 8.17459 9.01394e-16
      vertex 8.09017 5.87785 9.9076e-16
      vertex 8.89919 6.46564 1.08984e-15
    endloop
  endfacet
  facet normal -1.22465e-16 -2.80164e-23 1
    outer loop
      vertex 7.36044 8.17459 9.01394e-16
      vertex 6.69131 7.43145 8.19449e-16
      vertex 8.09017 5.87785 9.9076e-16
    endloop
  endfacet
  facet normal -1.22465e-16 -2.51264e-23 1
    outer loop
      vertex 5.5 9.52628 6.73556e-16
      vertex 6.69131 7.43145 8.19449e-16
      vertex 7.36044 8.17459 9.01394e-16
    endloop
  endfacet
  facet normal -1.22465e-16 1.22828e-24 1
    outer loop
      vertex 5.5 9.52628 6.73556e-16
      vertex 5 8.66025 6.12323e-16
      vertex 6.69131 7.43145 8.19449e-16
    endloop
  endfacet
  facet normal -1.22465e-16 9.22673e-24 1
    outer loop
      vertex 3.39919 10.4616 4.1628e-16
      vertex 5 8.66025 6.12323e-16
      vertex 5.5 9.52628 6.73556e-16
    endloop
  endfacet
  facet normal -1.22465e-16 -3.20585e-24 1
    outer loop
      vertex 3.39919 10.4616 4.1628e-16
      vertex 3.09017 9.51056 3.78437e-16
      vertex 5 8.66025 6.12323e-16
    endloop
  endfacet
  facet normal -1.22465e-16 -5.48741e-24 1
    outer loop
      vertex 1.14981 10.9397 1.40811e-16
      vertex 3.09017 9.51056 3.78437e-16
      vertex 3.39919 10.4616 4.1628e-16
    endloop
  endfacet
  facet normal -1.22465e-16 3.04202e-24 1
    outer loop
      vertex 1.14981 10.9397 1.40811e-16
      vertex 1.04528 9.94522 1.2801e-16
      vertex 3.09017 9.51056 3.78437e-16
    endloop
  endfacet
  facet normal -1.22465e-16 3.99234e-24 1
    outer loop
      vertex 1.14981 10.9397 1.40811e-16
      vertex -1.04528 9.94522 -1.2801e-16
      vertex 1.04528 9.94522 1.2801e-16
    endloop
  endfacet
  facet normal -1.22465e-16 -3.6294e-24 1
    outer loop
      vertex -1.14981 10.9397 -1.40811e-16
      vertex -1.04528 9.94522 -1.2801e-16
      vertex 1.14981 10.9397 1.40811e-16
    endloop
  endfacet
  facet normal -1.22465e-16 -3.04202e-24 1
    outer loop
      vertex -1.14981 10.9397 -1.40811e-16
      vertex -3.09017 9.51056 -3.78437e-16
      vertex -1.04528 9.94522 -1.2801e-16
    endloop
  endfacet
  facet normal -1.22465e-16 5.48741e-24 1
    outer loop
      vertex -3.39919 10.4616 -4.1628e-16
      vertex -3.09017 9.51056 -3.78437e-16
      vertex -1.14981 10.9397 -1.40811e-16
    endloop
  endfacet
  facet normal -1.22465e-16 4.82773e-24 1
    outer loop
      vertex -3.39919 10.4616 -4.1628e-16
      vertex -5 8.66025 -6.12323e-16
      vertex -3.09017 9.51056 -3.78437e-16
    endloop
  endfacet
  facet normal -1.22465e-16 -6.84104e-24 1
    outer loop
      vertex -5.5 9.52628 -6.73556e-16
      vertex -5 8.66025 -6.12323e-16
      vertex -3.39919 10.4616 -4.1628e-16
    endloop
  endfacet
  facet normal -1.22465e-16 -3.85254e-24 1
    outer loop
      vertex -5.5 9.52628 -6.73556e-16
      vertex -6.69131 7.43145 -8.19449e-16
      vertex -5 8.66025 -6.12323e-16
    endloop
  endfacet
  facet normal -1.22465e-16 2.19337e-23 1
    outer loop
      vertex -7.36044 8.17459 -9.01394e-16
      vertex -6.69131 7.43145 -8.19449e-16
      vertex -5.5 9.52628 -6.73556e-16
    endloop
  endfacet
  facet normal -1.22465e-16 2.80164e-23 1
    outer loop
      vertex -7.36044 8.17459 -9.01394e-16
      vertex -8.09017 5.87785 -9.9076e-16
      vertex -6.69131 7.43145 -8.19449e-16
    endloop
  endfacet
  facet normal -1.22465e-16 3.18982e-23 1
    outer loop
      vertex -8.89919 6.46564 -1.08984e-15
      vertex -8.09017 5.87785 -9.9076e-16
      vertex -7.36044 8.17459 -9.01394e-16
    endloop
  endfacet
  facet normal -1.22465e-16 2.7498e-23 1
    outer loop
      vertex -8.89919 6.46564 -1.08984e-15
      vertex -9.13545 4.06737 -1.11877e-15
      vertex -8.09017 5.87785 -9.9076e-16
    endloop
  endfacet
  facet normal -1.22465e-16 2.19954e-23 1
    outer loop
      vertex -10.049 4.4741 -1.23065e-15
      vertex -9.13545 4.06737 -1.11877e-15
      vertex -8.89919 6.46564 -1.08984e-15
    endloop
  endfacet
  facet normal -1.22465e-16 -2.40925e-23 1
    outer loop
      vertex -10.7596 2.28703 -1.31767e-15
      vertex -9.78148 2.07912 -1.19789e-15
      vertex -10.049 4.4741 -1.23065e-15
    endloop
  endfacet
  facet normal -1.22465e-16 -2.01596e-23 1
    outer loop
      vertex -9.13545 4.06737 -1.11877e-15
      vertex -10.049 4.4741 -1.23065e-15
      vertex -9.78148 2.07912 -1.19789e-15
    endloop
  endfacet
  facet normal -1.22465e-16 -2.40925e-23 1
    outer loop
      vertex 10.7596 -2.28703 1.31767e-15
      vertex 9.78148 -2.07912 1.19789e-15
      vertex 10.049 -4.4741 1.23065e-15
    endloop
  endfacet
  facet normal -1.22465e-16 -2.01596e-23 1
    outer loop
      vertex 9.13545 -4.06737 1.11877e-15
      vertex 10.049 -4.4741 1.23065e-15
      vertex 9.78148 -2.07912 1.19789e-15
    endloop
  endfacet
  facet normal -1.22465e-16 2.19954e-23 1
    outer loop
      vertex 9.13545 -4.06737 1.11877e-15
      vertex 8.89919 -6.46564 1.08984e-15
      vertex 10.049 -4.4741 1.23065e-15
    endloop
  endfacet
  facet normal -1.22465e-16 2.7498e-23 1
    outer loop
      vertex 8.09017 -5.87785 9.9076e-16
      vertex 8.89919 -6.46564 1.08984e-15
      vertex 9.13545 -4.06737 1.11877e-15
    endloop
  endfacet
  facet normal -1.22465e-16 3.18982e-23 1
    outer loop
      vertex 8.09017 -5.87785 9.9076e-16
      vertex 7.36044 -8.17459 9.01394e-16
      vertex 8.89919 -6.46564 1.08984e-15
    endloop
  endfacet
  facet normal -1.22465e-16 2.80164e-23 1
    outer loop
      vertex 6.69131 -7.43145 8.19449e-16
      vertex 7.36044 -8.17459 9.01394e-16
      vertex 8.09017 -5.87785 9.9076e-16
    endloop
  endfacet
  facet normal -1.22465e-16 2.19337e-23 1
    outer loop
      vertex 6.69131 -7.43145 8.19449e-16
      vertex 5.5 -9.52628 6.73556e-16
      vertex 7.36044 -8.17459 9.01394e-16
    endloop
  endfacet
  facet normal -1.22465e-16 -3.85254e-24 1
    outer loop
      vertex 5 -8.66025 6.12323e-16
      vertex 5.5 -9.52628 6.73556e-16
      vertex 6.69131 -7.43145 8.19449e-16
    endloop
  endfacet
  facet normal -1.22465e-16 -6.84104e-24 1
    outer loop
      vertex 5 -8.66025 6.12323e-16
      vertex 3.39919 -10.4616 4.1628e-16
      vertex 5.5 -9.52628 6.73556e-16
    endloop
  endfacet
  facet normal -1.22465e-16 4.82773e-24 1
    outer loop
      vertex 3.09017 -9.51056 3.78437e-16
      vertex 3.39919 -10.4616 4.1628e-16
      vertex 5 -8.66025 6.12323e-16
    endloop
  endfacet
  facet normal -1.22465e-16 5.48741e-24 1
    outer loop
      vertex 3.09017 -9.51056 3.78437e-16
      vertex 1.14981 -10.9397 1.40811e-16
      vertex 3.39919 -10.4616 4.1628e-16
    endloop
  endfacet
  facet normal -1.22465e-16 -3.04202e-24 1
    outer loop
      vertex 1.04528 -9.94522 1.2801e-16
      vertex 1.14981 -10.9397 1.40811e-16
      vertex 3.09017 -9.51056 3.78437e-16
    endloop
  endfacet
  facet normal -1.22465e-16 -3.99234e-24 1
    outer loop
      vertex -1.04528 -9.94522 -1.2801e-16
      vertex 1.14981 -10.9397 1.40811e-16
      vertex 1.04528 -9.94522 1.2801e-16
    endloop
  endfacet
  facet normal -1.22465e-16 3.6294e-24 1
    outer loop
      vertex -1.04528 -9.94522 -1.2801e-16
      vertex -1.14981 -10.9397 -1.40811e-16
      vertex 1.14981 -10.9397 1.40811e-16
    endloop
  endfacet
  facet normal -1.22465e-16 3.04202e-24 1
    outer loop
      vertex -3.09017 -9.51056 -3.78437e-16
      vertex -1.14981 -10.9397 -1.40811e-16
      vertex -1.04528 -9.94522 -1.2801e-16
    endloop
  endfacet
  facet normal -1.22465e-16 -5.48741e-24 1
    outer loop
      vertex -3.09017 -9.51056 -3.78437e-16
      vertex -3.39919 -10.4616 -4.1628e-16
      vertex -1.14981 -10.9397 -1.40811e-16
    endloop
  endfacet
  facet normal -1.22465e-16 -4.82773e-24 1
    outer loop
      vertex -5 -8.66025 -6.12323e-16
      vertex -3.39919 -10.4616 -4.1628e-16
      vertex -3.09017 -9.51056 -3.78437e-16
    endloop
  endfacet
  facet normal -1.22465e-16 6.84104e-24 1
    outer loop
      vertex -5 -8.66025 -6.12323e-16
      vertex -5.5 -9.52628 -6.73556e-16
      vertex -3.39919 -10.4616 -4.1628e-16
    endloop
  endfacet
  facet normal -1.22465e-16 3.85254e-24 1
    outer loop
      vertex -6.69131 -7.43145 -8.19449e-16
      vertex -5.5 -9.52628 -6.73556e-16
      vertex -5 -8.66025 -6.12323e-16
    endloop
  endfacet
  facet normal -1.22465e-16 -2.19337e-23 1
    outer loop
      vertex -6.69131 -7.43145 -8.19449e-16
      vertex -7.36044 -8.17459 -9.01394e-16
      vertex -5.5 -9.52628 -6.73556e-16
    endloop
  endfacet
  facet normal -1.22465e-16 -2.80164e-23 1
    outer loop
      vertex -8.09017 -5.87785 -9.9076e-16
      vertex -7.36044 -8.17459 -9.01394e-16
      vertex -6.69131 -7.43145 -8.19449e-16
    endloop
  endfacet
  facet normal -1.22465e-16 -3.18982e-23 1
    outer loop
      vertex -8.09017 -5.87785 -9.9076e-16
      vertex -8.89919 -6.46564 -1.08984e-15
      vertex -7.36044 -8.17459 -9.01394e-16
    endloop
  endfacet
  facet normal -1.22465e-16 -2.7498e-23 1
    outer loop
      vertex -9.13545 -4.06737 -1.11877e-15
      vertex -8.89919 -6.46564 -1.08984e-15
      vertex -8.09017 -5.87785 -9.9076e-16
    endloop
  endfacet
  facet normal -1.22465e-16 2.01596e-23 1
    outer loop
      vertex -10.049 -4.4741 -1.23065e-15
      vertex -9.13545 -4.06737 -1.11877e-15
      vertex -9.78148 -2.07912 -1.19789e-15
    endloop
  endfacet
  facet normal -1.22465e-16 -2.19954e-23 1
    outer loop
      vertex -9.13545 -4.06737 -1.11877e-15
      vertex -10.049 -4.4741 -1.23065e-15
      vertex -8.89919 -6.46564 -1.08984e-15
    endloop
  endfacet
  facet normal -1.22465e-16 -4.9951e-24 1
    outer loop
      vertex -10.7596 -2.28703 -1.31767e-15
      vertex -9.78148 -2.07912 -1.19789e-15
      vertex -10 0 -1.22465e-15
    endloop
  endfacet
  facet normal -1.22465e-16 4.9951e-24 1
    outer loop
      vertex -9.78148 2.07912 -1.19789e-15
      vertex -10.7596 2.28703 -1.31767e-15
      vertex -10 0 -1.22465e-15
    endloop
  endfacet
  facet normal -1.22465e-16 2.24709e-23 1
    outer loop
      vertex -11 0 -1.34711e-15
      vertex -10 0 -1.22465e-15
      vertex -10.7596 2.28703 -1.31767e-15
    endloop
  endfacet
  facet normal -1.22465e-16 2.40925e-23 1
    outer loop
      vertex -9.78148 -2.07912 -1.19789e-15
      vertex -10.7596 -2.28703 -1.31767e-15
      vertex -10.049 -4.4741 -1.23065e-15
    endloop
  endfacet
  facet normal -1.22465e-16 -2.24709e-23 1
    outer loop
      vertex -10 0 -1.22465e-15
      vertex -11 0 -1.34711e-15
      vertex -10.7596 -2.28703 -1.31767e-15
    endloop
  endfacet
  facet normal 0.951057 -0.309017 0
    outer loop
      vertex 10.049 -4.4741 1.23065e-15
      vertex 10.7596 -2.28703 -12
      vertex 10.7596 -2.28703 1.31767e-15
    endloop
  endfacet
  facet normal 0.951057 -0.309017 0
    outer loop
      vertex 10.7596 -2.28703 -12
      vertex 10.049 -4.4741 1.23065e-15
      vertex 10.049 -4.4741 -12
    endloop
  endfacet
  facet normal 0.406737 -0.913545 0
    outer loop
      vertex 3.39919 -10.4616 -12
      vertex 5.5 -9.52628 6.73556e-16
      vertex 3.39919 -10.4616 4.1628e-16
    endloop
  endfacet
  facet normal 0.406737 -0.913545 0
    outer loop
      vertex 5.5 -9.52628 6.73556e-16
      vertex 3.39919 -10.4616 -12
      vertex 5.5 -9.52628 -12
    endloop
  endfacet
  facet normal 0.866026 -0.5 0
    outer loop
      vertex -9.13545 4.06737 -1.11877e-15
      vertex -8.09017 5.87785 -10
      vertex -8.09017 5.87785 -9.9076e-16
    endloop
  endfacet
  facet normal 0.866026 -0.5 0
    outer loop
      vertex -8.09017 5.87785 -10
      vertex -9.13545 4.06737 -1.11877e-15
      vertex -9.13545 4.06737 -10
    endloop
  endfacet
  facet normal 0.743145 -0.669131 0
    outer loop
      vertex -8.09017 5.87785 -9.9076e-16
      vertex -6.69131 7.43145 -10
      vertex -6.69131 7.43145 -8.19449e-16
    endloop
  endfacet
  facet normal 0.743145 -0.669131 0
    outer loop
      vertex -6.69131 7.43145 -10
      vertex -8.09017 5.87785 -9.9076e-16
      vertex -8.09017 5.87785 -10
    endloop
  endfacet
  facet normal -0.406737 -0.913545 0
    outer loop
      vertex 3.09017 9.51056 -10
      vertex 5 8.66025 6.12323e-16
      vertex 3.09017 9.51056 3.78437e-16
    endloop
  endfacet
  facet normal -0.406737 -0.913545 -0
    outer loop
      vertex 5 8.66025 6.12323e-16
      vertex 3.09017 9.51056 -10
      vertex 5 8.66025 -10
    endloop
  endfacet
  facet normal -0.866026 -0.5 0
    outer loop
      vertex 9.13545 4.06737 -10
      vertex 8.09017 5.87785 9.9076e-16
      vertex 8.09017 5.87785 -10
    endloop
  endfacet
  facet normal -0.866026 -0.5 0
    outer loop
      vertex 8.09017 5.87785 9.9076e-16
      vertex 9.13545 4.06737 -10
      vertex 9.13545 4.06737 1.11877e-15
    endloop
  endfacet
  facet normal 0.994522 0.104529 0
    outer loop
      vertex -9.78148 -2.07912 -1.19789e-15
      vertex -10 0 -10
      vertex -10 0 -1.22465e-15
    endloop
  endfacet
  facet normal 0.994522 0.104529 0
    outer loop
      vertex -10 0 -10
      vertex -9.78148 -2.07912 -1.19789e-15
      vertex -9.78148 -2.07912 -10
    endloop
  endfacet
  facet normal 0.951057 -0.309017 0
    outer loop
      vertex -9.78148 2.07912 -1.19789e-15
      vertex -9.13545 4.06737 -10
      vertex -9.13545 4.06737 -1.11877e-15
    endloop
  endfacet
  facet normal 0.951057 -0.309017 0
    outer loop
      vertex -9.13545 4.06737 -10
      vertex -9.78148 2.07912 -1.19789e-15
      vertex -9.78148 2.07912 -10
    endloop
  endfacet
  facet normal 0.587785 -0.809017 0
    outer loop
      vertex -6.69131 7.43145 -10
      vertex -5 8.66025 -6.12323e-16
      vertex -6.69131 7.43145 -8.19449e-16
    endloop
  endfacet
  facet normal 0.587785 -0.809017 0
    outer loop
      vertex -5 8.66025 -6.12323e-16
      vertex -6.69131 7.43145 -10
      vertex -5 8.66025 -10
    endloop
  endfacet
  facet normal 0 -1 0
    outer loop
      vertex -1.04528 9.94522 -10
      vertex 1.04528 9.94522 1.2801e-16
      vertex -1.04528 9.94522 -1.2801e-16
    endloop
  endfacet
  facet normal 0 -1 -0
    outer loop
      vertex 1.04528 9.94522 1.2801e-16
      vertex -1.04528 9.94522 -10
      vertex 1.04528 9.94522 -10
    endloop
  endfacet
  facet normal 0.406737 -0.913545 0
    outer loop
      vertex -5 8.66025 -10
      vertex -3.09017 9.51056 -3.78437e-16
      vertex -5 8.66025 -6.12323e-16
    endloop
  endfacet
  facet normal 0.406737 -0.913545 0
    outer loop
      vertex -3.09017 9.51056 -3.78437e-16
      vertex -5 8.66025 -10
      vertex -3.09017 9.51056 -10
    endloop
  endfacet
  facet normal -0.994522 -0.104529 0
    outer loop
      vertex 10 0 -10
      vertex 9.78148 2.07912 1.19789e-15
      vertex 9.78148 2.07912 -10
    endloop
  endfacet
  facet normal -0.994522 -0.104529 0
    outer loop
      vertex 9.78148 2.07912 1.19789e-15
      vertex 10 0 -10
      vertex 10 0 1.22465e-15
    endloop
  endfacet
  facet normal -0.587785 -0.809017 0
    outer loop
      vertex 5 8.66025 -10
      vertex 6.69131 7.43145 8.19449e-16
      vertex 5 8.66025 6.12323e-16
    endloop
  endfacet
  facet normal -0.587785 -0.809017 -0
    outer loop
      vertex 6.69131 7.43145 8.19449e-16
      vertex 5 8.66025 -10
      vertex 6.69131 7.43145 -10
    endloop
  endfacet
  facet normal -0.207911 -0.978148 0
    outer loop
      vertex 1.04528 9.94522 -10
      vertex 3.09017 9.51056 3.78437e-16
      vertex 1.04528 9.94522 1.2801e-16
    endloop
  endfacet
  facet normal -0.207911 -0.978148 -0
    outer loop
      vertex 3.09017 9.51056 3.78437e-16
      vertex 1.04528 9.94522 -10
      vertex 3.09017 9.51056 -10
    endloop
  endfacet
  facet normal -0.743145 -0.669131 0
    outer loop
      vertex 8.09017 5.87785 -10
      vertex 6.69131 7.43145 8.19449e-16
      vertex 6.69131 7.43145 -10
    endloop
  endfacet
  facet normal -0.743145 -0.669131 0
    outer loop
      vertex 6.69131 7.43145 8.19449e-16
      vertex 8.09017 5.87785 -10
      vertex 8.09017 5.87785 9.9076e-16
    endloop
  endfacet
  facet normal 0.994522 -0.104529 0
    outer loop
      vertex -10 0 -1.22465e-15
      vertex -9.78148 2.07912 -10
      vertex -9.78148 2.07912 -1.19789e-15
    endloop
  endfacet
  facet normal 0.994522 -0.104529 0
    outer loop
      vertex -9.78148 2.07912 -10
      vertex -10 0 -1.22465e-15
      vertex -10 0 -10
    endloop
  endfacet
  facet normal -0.866026 0.5 0
    outer loop
      vertex 8.09017 -5.87785 -10
      vertex 9.13545 -4.06737 1.11877e-15
      vertex 9.13545 -4.06737 -10
    endloop
  endfacet
  facet normal -0.866026 0.5 0
    outer loop
      vertex 9.13545 -4.06737 1.11877e-15
      vertex 8.09017 -5.87785 -10
      vertex 8.09017 -5.87785 9.9076e-16
    endloop
  endfacet
  facet normal 0.587785 0.809017 -0
    outer loop
      vertex -5 -8.66025 -10
      vertex -6.69131 -7.43145 -8.19449e-16
      vertex -5 -8.66025 -6.12323e-16
    endloop
  endfacet
  facet normal 0.587785 0.809017 0
    outer loop
      vertex -6.69131 -7.43145 -8.19449e-16
      vertex -5 -8.66025 -10
      vertex -6.69131 -7.43145 -10
    endloop
  endfacet
  facet normal 0.207911 -0.978148 0
    outer loop
      vertex -3.09017 9.51056 -10
      vertex -1.04528 9.94522 -1.2801e-16
      vertex -3.09017 9.51056 -3.78437e-16
    endloop
  endfacet
  facet normal 0.207911 -0.978148 0
    outer loop
      vertex -1.04528 9.94522 -1.2801e-16
      vertex -3.09017 9.51056 -10
      vertex -1.04528 9.94522 -10
    endloop
  endfacet
  facet normal 0 0 1
    outer loop
      vertex 9.78148 2.07912 -10
      vertex 9.78148 -2.07912 -10
      vertex 10 0 -10
    endloop
  endfacet
  facet normal 0 0 1
    outer loop
      vertex 9.13545 4.06737 -10
      vertex 9.78148 -2.07912 -10
      vertex 9.78148 2.07912 -10
    endloop
  endfacet
  facet normal 0 0 1
    outer loop
      vertex 9.13545 4.06737 -10
      vertex 9.13545 -4.06737 -10
      vertex 9.78148 -2.07912 -10
    endloop
  endfacet
  facet normal 0 0 1
    outer loop
      vertex 8.09017 5.87785 -10
      vertex 9.13545 -4.06737 -10
      vertex 9.13545 4.06737 -10
    endloop
  endfacet
  facet normal 0 0 1
    outer loop
      vertex 8.09017 5.87785 -10
      vertex 8.09017 -5.87785 -10
      vertex 9.13545 -4.06737 -10
    endloop
  endfacet
  facet normal 0 0 1
    outer loop
      vertex 6.69131 7.43145 -10
      vertex 8.09017 -5.87785 -10
      vertex 8.09017 5.87785 -10
    endloop
  endfacet
  facet normal 0 0 1
    outer loop
      vertex 6.69131 7.43145 -10
      vertex 6.69131 -7.43145 -10
      vertex 8.09017 -5.87785 -10
    endloop
  endfacet
  facet normal 0 0 1
    outer loop
      vertex 6.69131 7.43145 -10
      vertex 5 -8.66025 -10
      vertex 6.69131 -7.43145 -10
    endloop
  endfacet
  facet normal 0 0 1
    outer loop
      vertex 5 8.66025 -10
      vertex 5 -8.66025 -10
      vertex 6.69131 7.43145 -10
    endloop
  endfacet
  facet normal 0 0 1
    outer loop
      vertex 3.09017 9.51056 -10
      vertex 5 -8.66025 -10
      vertex 5 8.66025 -10
    endloop
  endfacet
  facet normal 0 0 1
    outer loop
      vertex 3.09017 9.51056 -10
      vertex 3.09017 -9.51056 -10
      vertex 5 -8.66025 -10
    endloop
  endfacet
  facet normal 0 0 1
    outer loop
      vertex 1.04528 9.94522 -10
      vertex 3.09017 -9.51056 -10
      vertex 3.09017 9.51056 -10
    endloop
  endfacet
  facet normal 0 0 1
    outer loop
      vertex 1.04528 9.94522 -10
      vertex 1.04528 -9.94522 -10
      vertex 3.09017 -9.51056 -10
    endloop
  endfacet
  facet normal -0 0 1
    outer loop
      vertex -1.04528 9.94522 -10
      vertex 1.04528 -9.94522 -10
      vertex 1.04528 9.94522 -10
    endloop
  endfacet
  facet normal 0 0 1
    outer loop
      vertex -1.04528 9.94522 -10
      vertex -1.04528 -9.94522 -10
      vertex 1.04528 -9.94522 -10
    endloop
  endfacet
  facet normal -0 0 1
    outer loop
      vertex -3.09017 9.51056 -10
      vertex -1.04528 -9.94522 -10
      vertex -1.04528 9.94522 -10
    endloop
  endfacet
  facet normal 0 0 1
    outer loop
      vertex -3.09017 9.51056 -10
      vertex -3.09017 -9.51056 -10
      vertex -1.04528 -9.94522 -10
    endloop
  endfacet
  facet normal -0 0 1
    outer loop
      vertex -5 8.66025 -10
      vertex -3.09017 -9.51056 -10
      vertex -3.09017 9.51056 -10
    endloop
  endfacet
  facet normal 0 0 1
    outer loop
      vertex -5 8.66025 -10
      vertex -5 -8.66025 -10
      vertex -3.09017 -9.51056 -10
    endloop
  endfacet
  facet normal -0 0 1
    outer loop
      vertex -6.69131 7.43145 -10
      vertex -5 -8.66025 -10
      vertex -5 8.66025 -10
    endloop
  endfacet
  facet normal 0 0 1
    outer loop
      vertex -6.69131 7.43145 -10
      vertex -6.69131 -7.43145 -10
      vertex -5 -8.66025 -10
    endloop
  endfacet
  facet normal -0 0 1
    outer loop
      vertex -8.09017 5.87785 -10
      vertex -6.69131 -7.43145 -10
      vertex -6.69131 7.43145 -10
    endloop
  endfacet
  facet normal 0 0 1
    outer loop
      vertex -8.09017 5.87785 -10
      vertex -8.09017 -5.87785 -10
      vertex -6.69131 -7.43145 -10
    endloop
  endfacet
  facet normal -0 0 1
    outer loop
      vertex -9.13545 4.06737 -10
      vertex -8.09017 -5.87785 -10
      vertex -8.09017 5.87785 -10
    endloop
  endfacet
  facet normal 0 0 1
    outer loop
      vertex -9.13545 4.06737 -10
      vertex -9.13545 -4.06737 -10
      vertex -8.09017 -5.87785 -10
    endloop
  endfacet
  facet normal -0 0 1
    outer loop
      vertex -9.78148 2.07912 -10
      vertex -9.13545 -4.06737 -10
      vertex -9.13545 4.06737 -10
    endloop
  endfacet
  facet normal 0 0 1
    outer loop
      vertex -9.78148 2.07912 -10
      vertex -9.78148 -2.07912 -10
      vertex -9.13545 -4.06737 -10
    endloop
  endfacet
  facet normal 0 -0 1
    outer loop
      vertex -9.78148 -2.07912 -10
      vertex -9.78148 2.07912 -10
      vertex -10 0 -10
    endloop
  endfacet
  facet normal -0.951057 -0.309017 0
    outer loop
      vertex 9.78148 2.07912 -10
      vertex 9.13545 4.06737 1.11877e-15
      vertex 9.13545 4.06737 -10
    endloop
  endfacet
  facet normal -0.951057 -0.309017 0
    outer loop
      vertex 9.13545 4.06737 1.11877e-15
      vertex 9.78148 2.07912 -10
      vertex 9.78148 2.07912 1.19789e-15
    endloop
  endfacet
  facet normal 0.866026 0.5 0
    outer loop
      vertex -8.09017 -5.87785 -9.9076e-16
      vertex -9.13545 -4.06737 -10
      vertex -9.13545 -4.06737 -1.11877e-15
    endloop
  endfacet
  facet normal 0.866026 0.5 0
    outer loop
      vertex -9.13545 -4.06737 -10
      vertex -8.09017 -5.87785 -9.9076e-16
      vertex -8.09017 -5.87785 -10
    endloop
  endfacet
  facet normal -0.994522 0.104529 0
    outer loop
      vertex 9.78148 -2.07912 -10
      vertex 10 0 1.22465e-15
      vertex 10 0 -10
    endloop
  endfacet
  facet normal -0.994522 0.104529 0
    outer loop
      vertex 10 0 1.22465e-15
      vertex 9.78148 -2.07912 -10
      vertex 9.78148 -2.07912 1.19789e-15
    endloop
  endfacet
  facet normal 0.207911 0.978148 -0
    outer loop
      vertex -1.04528 -9.94522 -10
      vertex -3.09017 -9.51056 -3.78437e-16
      vertex -1.04528 -9.94522 -1.2801e-16
    endloop
  endfacet
  facet normal 0.207911 0.978148 0
    outer loop
      vertex -3.09017 -9.51056 -3.78437e-16
      vertex -1.04528 -9.94522 -10
      vertex -3.09017 -9.51056 -10
    endloop
  endfacet
  facet normal 0.406737 0.913545 -0
    outer loop
      vertex -3.09017 -9.51056 -10
      vertex -5 -8.66025 -6.12323e-16
      vertex -3.09017 -9.51056 -3.78437e-16
    endloop
  endfacet
  facet normal 0.406737 0.913545 0
    outer loop
      vertex -5 -8.66025 -6.12323e-16
      vertex -3.09017 -9.51056 -10
      vertex -5 -8.66025 -10
    endloop
  endfacet
  facet normal 0.951057 0.309017 0
    outer loop
      vertex -9.13545 -4.06737 -1.11877e-15
      vertex -9.78148 -2.07912 -10
      vertex -9.78148 -2.07912 -1.19789e-15
    endloop
  endfacet
  facet normal 0.951057 0.309017 0
    outer loop
      vertex -9.78148 -2.07912 -10
      vertex -9.13545 -4.06737 -1.11877e-15
      vertex -9.13545 -4.06737 -10
    endloop
  endfacet
  facet normal -0.207911 0.978148 0
    outer loop
      vertex 3.09017 -9.51056 -10
      vertex 1.04528 -9.94522 1.2801e-16
      vertex 3.09017 -9.51056 3.78437e-16
    endloop
  endfacet
  facet normal -0.207911 0.978148 0
    outer loop
      vertex 1.04528 -9.94522 1.2801e-16
      vertex 3.09017 -9.51056 -10
      vertex 1.04528 -9.94522 -10
    endloop
  endfacet
  facet normal 0 1 -0
    outer loop
      vertex 1.04528 -9.94522 -10
      vertex -1.04528 -9.94522 -1.2801e-16
      vertex 1.04528 -9.94522 1.2801e-16
    endloop
  endfacet
  facet normal 0 1 0
    outer loop
      vertex -1.04528 -9.94522 -1.2801e-16
      vertex 1.04528 -9.94522 -10
      vertex -1.04528 -9.94522 -10
    endloop
  endfacet
  facet normal -0.951057 0.309017 0
    outer loop
      vertex 9.13545 -4.06737 -10
      vertex 9.78148 -2.07912 1.19789e-15
      vertex 9.78148 -2.07912 -10
    endloop
  endfacet
  facet normal -0.951057 0.309017 0
    outer loop
      vertex 9.78148 -2.07912 1.19789e-15
      vertex 9.13545 -4.06737 -10
      vertex 9.13545 -4.06737 1.11877e-15
    endloop
  endfacet
  facet normal -0.743145 0.669131 0
    outer loop
      vertex 6.69131 -7.43145 -10
      vertex 8.09017 -5.87785 9.9076e-16
      vertex 8.09017 -5.87785 -10
    endloop
  endfacet
  facet normal -0.743145 0.669131 0
    outer loop
      vertex 8.09017 -5.87785 9.9076e-16
      vertex 6.69131 -7.43145 -10
      vertex 6.69131 -7.43145 8.19449e-16
    endloop
  endfacet
  facet normal 0.743145 0.669131 0
    outer loop
      vertex -6.69131 -7.43145 -8.19449e-16
      vertex -8.09017 -5.87785 -10
      vertex -8.09017 -5.87785 -9.9076e-16
    endloop
  endfacet
  facet normal 0.743145 0.669131 0
    outer loop
      vertex -8.09017 -5.87785 -10
      vertex -6.69131 -7.43145 -8.19449e-16
      vertex -6.69131 -7.43145 -10
    endloop
  endfacet
  facet normal -0.406737 0.913545 0
    outer loop
      vertex 5 -8.66025 -10
      vertex 3.09017 -9.51056 3.78437e-16
      vertex 5 -8.66025 6.12323e-16
    endloop
  endfacet
  facet normal -0.406737 0.913545 0
    outer loop
      vertex 3.09017 -9.51056 3.78437e-16
      vertex 5 -8.66025 -10
      vertex 3.09017 -9.51056 -10
    endloop
  endfacet
  facet normal -0.587785 0.809017 0
    outer loop
      vertex 6.69131 -7.43145 -10
      vertex 5 -8.66025 6.12323e-16
      vertex 6.69131 -7.43145 8.19449e-16
    endloop
  endfacet
  facet normal -0.587785 0.809017 0
    outer loop
      vertex 5 -8.66025 6.12323e-16
      vertex 6.69131 -7.43145 -10
      vertex 5 -8.66025 -10
    endloop
  endfacet
  facet normal 0.994138 0.108119 0
    outer loop
      vertex 49 0 4
      vertex 48.7896 1.93473 2
      vertex 48.7896 1.93473 4
    endloop
  endfacet
  facet normal 0.994138 0.108119 0
    outer loop
      vertex 48.7896 1.93473 2
      vertex 49 0 4
      vertex 49 0 2
    endloop
  endfacet
  facet normal -1 0 0
    outer loop
      vertex 31.0528 -0.973071 2
      vertex 31.0528 0.973071 4
      vertex 31.0528 0.973071 2
    endloop
  endfacet
  facet normal -1 -0 0
    outer loop
      vertex 31.0528 0.973071 4
      vertex 31.0528 -0.973071 2
      vertex 31.0528 -0.973071 4
    endloop
  endfacet
  facet normal -0.0541388 0.998533 0
    outer loop
      vertex 40.4873 8.9868 2
      vertex 38.544 8.88144 4
      vertex 40.4873 8.9868 4
    endloop
  endfacet
  facet normal -0.0541388 0.998533 0
    outer loop
      vertex 38.544 8.88144 4
      vertex 40.4873 8.9868 2
      vertex 38.544 8.88144 2
    endloop
  endfacet
  facet normal 0.161782 -0.986826 0
    outer loop
      vertex 40.4873 -8.9868 2
      vertex 42.4078 -8.67195 4
      vertex 40.4873 -8.9868 4
    endloop
  endfacet
  facet normal 0.161782 -0.986826 0
    outer loop
      vertex 42.4078 -8.67195 4
      vertex 40.4873 -8.9868 2
      vertex 42.4078 -8.67195 2
    endloop
  endfacet
  facet normal 0.725996 0.687699 0
    outer loop
      vertex 47.1648 5.44657 4
      vertex 45.8265 6.85946 2
      vertex 45.8265 6.85946 4
    endloop
  endfacet
  facet normal 0.725996 0.687699 0
    outer loop
      vertex 45.8265 6.85946 2
      vertex 47.1648 5.44657 4
      vertex 47.1648 5.44657 2
    endloop
  endfacet
  facet normal 0.947653 0.319302 0
    outer loop
      vertex 48.7896 1.93473 4
      vertex 48.1682 3.779 2
      vertex 48.1682 3.779 4
    endloop
  endfacet
  facet normal 0.947653 0.319302 0
    outer loop
      vertex 48.1682 3.779 2
      vertex 48.7896 1.93473 4
      vertex 48.7896 1.93473 2
    endloop
  endfacet
  facet normal -0.647386 0.762162 0
    outer loop
      vertex 34.9493 7.4492 2
      vertex 33.466 6.18929 4
      vertex 34.9493 7.4492 4
    endloop
  endfacet
  facet normal -0.647386 0.762162 0
    outer loop
      vertex 33.466 6.18929 4
      vertex 34.9493 7.4492 2
      vertex 33.466 6.18929 2
    endloop
  endfacet
  facet normal -0.267529 0.96355 0
    outer loop
      vertex 38.544 8.88144 2
      vertex 36.6688 8.36079 4
      vertex 38.544 8.88144 4
    endloop
  endfacet
  facet normal -0.267529 0.96355 0
    outer loop
      vertex 36.6688 8.36079 4
      vertex 38.544 8.88144 2
      vertex 36.6688 8.36079 2
    endloop
  endfacet
  facet normal 0.856857 0.515554 0
    outer loop
      vertex 48.1682 3.779 4
      vertex 47.1648 5.44657 2
      vertex 47.1648 5.44657 4
    endloop
  endfacet
  facet normal 0.856857 0.515554 0
    outer loop
      vertex 47.1648 5.44657 2
      vertex 48.1682 3.779 4
      vertex 48.1682 3.779 2
    endloop
  endfacet
  facet normal 0.370138 0.928977 -0
    outer loop
      vertex 44.2157 7.95161 2
      vertex 42.4078 8.67195 4
      vertex 44.2157 7.95161 4
    endloop
  endfacet
  facet normal 0.370138 0.928977 0
    outer loop
      vertex 42.4078 8.67195 4
      vertex 44.2157 7.95161 2
      vertex 42.4078 8.67195 2
    endloop
  endfacet
  facet normal 0.161782 0.986826 -0
    outer loop
      vertex 42.4078 8.67195 2
      vertex 40.4873 8.9868 4
      vertex 42.4078 8.67195 4
    endloop
  endfacet
  facet normal 0.161782 0.986826 0
    outer loop
      vertex 40.4873 8.9868 4
      vertex 42.4078 8.67195 2
      vertex 40.4873 8.9868 2
    endloop
  endfacet
  facet normal 0.561187 0.827689 -0
    outer loop
      vertex 45.8265 6.85946 2
      vertex 44.2157 7.95161 4
      vertex 45.8265 6.85946 4
    endloop
  endfacet
  facet normal 0.561187 0.827689 0
    outer loop
      vertex 44.2157 7.95161 4
      vertex 45.8265 6.85946 2
      vertex 44.2157 7.95161 2
    endloop
  endfacet
  facet normal -0.907576 0.419888 0
    outer loop
      vertex 31.4711 2.87371 2
      vertex 32.2883 4.63998 4
      vertex 32.2883 4.63998 2
    endloop
  endfacet
  facet normal -0.907576 0.419888 0
    outer loop
      vertex 32.2883 4.63998 4
      vertex 31.4711 2.87371 2
      vertex 31.4711 2.87371 4
    endloop
  endfacet
  facet normal -0.796093 0.605175 0
    outer loop
      vertex 32.2883 4.63998 2
      vertex 33.466 6.18929 4
      vertex 33.466 6.18929 2
    endloop
  endfacet
  facet normal -0.796093 0.605175 0
    outer loop
      vertex 33.466 6.18929 4
      vertex 32.2883 4.63998 2
      vertex 32.2883 4.63998 4
    endloop
  endfacet
  facet normal -0.97662 0.214971 0
    outer loop
      vertex 31.0528 0.973071 2
      vertex 31.4711 2.87371 4
      vertex 31.4711 2.87371 2
    endloop
  endfacet
  facet normal -0.97662 0.214971 0
    outer loop
      vertex 31.4711 2.87371 4
      vertex 31.0528 0.973071 2
      vertex 31.0528 0.973071 4
    endloop
  endfacet
  facet normal 0 0 1
    outer loop
      vertex 48.7896 1.93473 4
      vertex 48.7896 -1.93473 4
      vertex 49 0 4
    endloop
  endfacet
  facet normal 0 0 1
    outer loop
      vertex 48.1682 3.779 4
      vertex 48.7896 -1.93473 4
      vertex 48.7896 1.93473 4
    endloop
  endfacet
  facet normal 0 0 1
    outer loop
      vertex 48.1682 3.779 4
      vertex 48.1682 -3.779 4
      vertex 48.7896 -1.93473 4
    endloop
  endfacet
  facet normal 0 0 1
    outer loop
      vertex 47.1648 5.44657 4
      vertex 48.1682 -3.779 4
      vertex 48.1682 3.779 4
    endloop
  endfacet
  facet normal 0 0 1
    outer loop
      vertex 47.1648 5.44657 4
      vertex 47.1648 -5.44657 4
      vertex 48.1682 -3.779 4
    endloop
  endfacet
  facet normal 0 0 1
    outer loop
      vertex 45.8265 6.85946 4
      vertex 47.1648 -5.44657 4
      vertex 47.1648 5.44657 4
    endloop
  endfacet
  facet normal 0 0 1
    outer loop
      vertex 45.8265 6.85946 4
      vertex 45.8265 -6.85946 4
      vertex 47.1648 -5.44657 4
    endloop
  endfacet
  facet normal 0 0 1
    outer loop
      vertex 44.2157 7.95161 4
      vertex 45.8265 -6.85946 4
      vertex 45.8265 6.85946 4
    endloop
  endfacet
  facet normal 0 0 1
    outer loop
      vertex 44.2157 7.95161 4
      vertex 44.2157 -7.95161 4
      vertex 45.8265 -6.85946 4
    endloop
  endfacet
  facet normal 0 0 1
    outer loop
      vertex 42.4078 8.67195 4
      vertex 44.2157 -7.95161 4
      vertex 44.2157 7.95161 4
    endloop
  endfacet
  facet normal 0 0 1
    outer loop
      vertex 42.4078 8.67195 4
      vertex 42.4078 -8.67195 4
      vertex 44.2157 -7.95161 4
    endloop
  endfacet
  facet normal 0 0 1
    outer loop
      vertex 40.4873 8.9868 4
      vertex 42.4078 -8.67195 4
      vertex 42.4078 8.67195 4
    endloop
  endfacet
  facet normal 0 0 1
    outer loop
      vertex 40.4873 8.9868 4
      vertex 40.4873 -8.9868 4
      vertex 42.4078 -8.67195 4
    endloop
  endfacet
  facet normal -0 0 1
    outer loop
      vertex 38.544 8.88144 4
      vertex 40.4873 -8.9868 4
      vertex 40.4873 8.9868 4
    endloop
  endfacet
  facet normal 0 0 1
    outer loop
      vertex 38.544 8.88144 4
      vertex 38.544 -8.88144 4
      vertex 40.4873 -8.9868 4
    endloop
  endfacet
  facet normal -0 0 1
    outer loop
      vertex 36.6688 8.36079 4
      vertex 38.544 -8.88144 4
      vertex 38.544 8.88144 4
    endloop
  endfacet
  facet normal 0 0 1
    outer loop
      vertex 36.6688 8.36079 4
      vertex 36.6688 -8.36079 4
      vertex 38.544 -8.88144 4
    endloop
  endfacet
  facet normal -0 0 1
    outer loop
      vertex 34.9493 7.4492 4
      vertex 36.6688 -8.36079 4
      vertex 36.6688 8.36079 4
    endloop
  endfacet
  facet normal 0 0 1
    outer loop
      vertex 34.9493 7.4492 4
      vertex 34.9493 -7.4492 4
      vertex 36.6688 -8.36079 4
    endloop
  endfacet
  facet normal -0 0 1
    outer loop
      vertex 33.466 6.18929 4
      vertex 34.9493 -7.4492 4
      vertex 34.9493 7.4492 4
    endloop
  endfacet
  facet normal 0 0 1
    outer loop
      vertex 33.466 6.18929 4
      vertex 33.466 -6.18929 4
      vertex 34.9493 -7.4492 4
    endloop
  endfacet
  facet normal -0 0 1
    outer loop
      vertex 32.2883 4.63998 4
      vertex 33.466 -6.18929 4
      vertex 33.466 6.18929 4
    endloop
  endfacet
  facet normal 0 0 1
    outer loop
      vertex 32.2883 4.63998 4
      vertex 32.2883 -4.63998 4
      vertex 33.466 -6.18929 4
    endloop
  endfacet
  facet normal -0 0 1
    outer loop
      vertex 31.4711 2.87371 4
      vertex 32.2883 -4.63998 4
      vertex 32.2883 4.63998 4
    endloop
  endfacet
  facet normal 0 0 1
    outer loop
      vertex 31.4711 2.87371 4
      vertex 31.4711 -2.87371 4
      vertex 32.2883 -4.63998 4
    endloop
  endfacet
  facet normal -0 0 1
    outer loop
      vertex 31.0528 0.973071 4
      vertex 31.4711 -2.87371 4
      vertex 31.4711 2.87371 4
    endloop
  endfacet
  facet normal 0 0 1
    outer loop
      vertex 31.4711 -2.87371 4
      vertex 31.0528 0.973071 4
      vertex 31.0528 -0.973071 4
    endloop
  endfacet
  facet normal -0.468408 0.883512 0
    outer loop
      vertex 36.6688 8.36079 2
      vertex 34.9493 7.4492 4
      vertex 36.6688 8.36079 4
    endloop
  endfacet
  facet normal -0.468408 0.883512 0
    outer loop
      vertex 34.9493 7.4492 4
      vertex 36.6688 8.36079 2
      vertex 34.9493 7.4492 2
    endloop
  endfacet
  facet normal -0.97662 -0.214971 0
    outer loop
      vertex 31.4711 -2.87371 2
      vertex 31.0528 -0.973071 4
      vertex 31.0528 -0.973071 2
    endloop
  endfacet
  facet normal -0.97662 -0.214971 0
    outer loop
      vertex 31.0528 -0.973071 4
      vertex 31.4711 -2.87371 2
      vertex 31.4711 -2.87371 4
    endloop
  endfacet
  facet normal 0.947653 -0.319302 0
    outer loop
      vertex 48.1682 -3.779 4
      vertex 48.7896 -1.93473 2
      vertex 48.7896 -1.93473 4
    endloop
  endfacet
  facet normal 0.947653 -0.319302 0
    outer loop
      vertex 48.7896 -1.93473 2
      vertex 48.1682 -3.779 4
      vertex 48.1682 -3.779 2
    endloop
  endfacet
  facet normal 0 0 -1
    outer loop
      vertex 50.7596 -2.28703 0
      vertex 50.7596 2.28703 0
      vertex 51 0 0
    endloop
  endfacet
  facet normal 0 0 -1
    outer loop
      vertex 50.049 -4.4741 0
      vertex 50.7596 2.28703 0
      vertex 50.7596 -2.28703 0
    endloop
  endfacet
  facet normal 0 0 -1
    outer loop
      vertex 50.049 -4.4741 0
      vertex 50.049 4.4741 0
      vertex 50.7596 2.28703 0
    endloop
  endfacet
  facet normal 0 0 -1
    outer loop
      vertex 48.8992 -6.46564 0
      vertex 50.049 4.4741 0
      vertex 50.049 -4.4741 0
    endloop
  endfacet
  facet normal 0 0 -1
    outer loop
      vertex 48.8992 -6.46564 0
      vertex 48.8992 6.46564 0
      vertex 50.049 4.4741 0
    endloop
  endfacet
  facet normal 0 0 -1
    outer loop
      vertex 47.3604 -8.17459 0
      vertex 48.8992 6.46564 0
      vertex 48.8992 -6.46564 0
    endloop
  endfacet
  facet normal 0 0 -1
    outer loop
      vertex 47.3604 -8.17459 0
      vertex 47.3604 8.17459 0
      vertex 48.8992 6.46564 0
    endloop
  endfacet
  facet normal 0 0 -1
    outer loop
      vertex 45.5 -9.52628 0
      vertex 47.3604 8.17459 0
      vertex 47.3604 -8.17459 0
    endloop
  endfacet
  facet normal 0 0 -1
    outer loop
      vertex 45.5 -9.52628 0
      vertex 45.5 9.52628 0
      vertex 47.3604 8.17459 0
    endloop
  endfacet
  facet normal 0 0 -1
    outer loop
      vertex 43.3992 -10.4616 0
      vertex 45.5 9.52628 0
      vertex 45.5 -9.52628 0
    endloop
  endfacet
  facet normal 0 0 -1
    outer loop
      vertex 43.3992 -10.4616 0
      vertex 43.3992 10.4616 0
      vertex 45.5 9.52628 0
    endloop
  endfacet
  facet normal 0 0 -1
    outer loop
      vertex 41.1498 -10.9397 0
      vertex 43.3992 10.4616 0
      vertex 43.3992 -10.4616 0
    endloop
  endfacet
  facet normal 0 0 -1
    outer loop
      vertex 41.1498 -10.9397 0
      vertex 41.1498 10.9397 0
      vertex 43.3992 10.4616 0
    endloop
  endfacet
  facet normal 0 0 -1
    outer loop
      vertex 38.8502 -10.9397 0
      vertex 41.1498 10.9397 0
      vertex 41.1498 -10.9397 0
    endloop
  endfacet
  facet normal 0 0 -1
    outer loop
      vertex 38.8502 -10.9397 0
      vertex 38.8502 10.9397 0
      vertex 41.1498 10.9397 0
    endloop
  endfacet
  facet normal 0 0 -1
    outer loop
      vertex 36.6008 -10.4616 0
      vertex 38.8502 10.9397 0
      vertex 38.8502 -10.9397 0
    endloop
  endfacet
  facet normal 0 0 -1
    outer loop
      vertex 36.6008 -10.4616 0
      vertex 36.6008 10.4616 0
      vertex 38.8502 10.9397 0
    endloop
  endfacet
  facet normal 0 0 -1
    outer loop
      vertex 34.5 -9.52628 0
      vertex 36.6008 10.4616 0
      vertex 36.6008 -10.4616 0
    endloop
  endfacet
  facet normal 0 0 -1
    outer loop
      vertex 34.5 -9.52628 0
      vertex 34.5 9.52628 0
      vertex 36.6008 10.4616 0
    endloop
  endfacet
  facet normal 0 0 -1
    outer loop
      vertex 32.6396 -8.17459 0
      vertex 34.5 9.52628 0
      vertex 34.5 -9.52628 0
    endloop
  endfacet
  facet normal 0 0 -1
    outer loop
      vertex 32.6396 -8.17459 0
      vertex 32.6396 8.17459 0
      vertex 34.5 9.52628 0
    endloop
  endfacet
  facet normal 0 0 -1
    outer loop
      vertex 31.1008 -6.46564 0
      vertex 32.6396 8.17459 0
      vertex 32.6396 -8.17459 0
    endloop
  endfacet
  facet normal 0 0 -1
    outer loop
      vertex 31.1008 -6.46564 0
      vertex 31.1008 6.46564 0
      vertex 32.6396 8.17459 0
    endloop
  endfacet
  facet normal 0 0 -1
    outer loop
      vertex 29.951 -4.4741 0
      vertex 31.1008 6.46564 0
      vertex 31.1008 -6.46564 0
    endloop
  endfacet
  facet normal 0 0 -1
    outer loop
      vertex 29.951 -4.4741 0
      vertex 29.951 4.4741 0
      vertex 31.1008 6.46564 0
    endloop
  endfacet
  facet normal 0 0 -1
    outer loop
      vertex 29.2404 -2.28703 0
      vertex 29.951 4.4741 0
      vertex 29.951 -4.4741 0
    endloop
  endfacet
  facet normal 0 0 -1
    outer loop
      vertex 29.2404 -2.28703 0
      vertex 29.2404 2.28703 0
      vertex 29.951 4.4741 0
    endloop
  endfacet
  facet normal 0 -0 -1
    outer loop
      vertex 29.2404 2.28703 0
      vertex 29.2404 -2.28703 0
      vertex 29 0 0
    endloop
  endfacet
  facet normal 0.725996 -0.687699 0
    outer loop
      vertex 45.8265 -6.85946 4
      vertex 47.1648 -5.44657 2
      vertex 47.1648 -5.44657 4
    endloop
  endfacet
  facet normal 0.725996 -0.687699 0
    outer loop
      vertex 47.1648 -5.44657 2
      vertex 45.8265 -6.85946 4
      vertex 45.8265 -6.85946 2
    endloop
  endfacet
  facet normal 0.994138 -0.108119 0
    outer loop
      vertex 48.7896 -1.93473 4
      vertex 49 0 2
      vertex 49 0 4
    endloop
  endfacet
  facet normal 0.994138 -0.108119 0
    outer loop
      vertex 49 0 2
      vertex 48.7896 -1.93473 4
      vertex 48.7896 -1.93473 2
    endloop
  endfacet
  facet normal -0.0541388 -0.998533 0
    outer loop
      vertex 38.544 -8.88144 2
      vertex 40.4873 -8.9868 4
      vertex 38.544 -8.88144 4
    endloop
  endfacet
  facet normal -0.0541388 -0.998533 -0
    outer loop
      vertex 40.4873 -8.9868 4
      vertex 38.544 -8.88144 2
      vertex 40.4873 -8.9868 2
    endloop
  endfacet
  facet normal -0.468408 -0.883512 0
    outer loop
      vertex 34.9493 -7.4492 2
      vertex 36.6688 -8.36079 4
      vertex 34.9493 -7.4492 4
    endloop
  endfacet
  facet normal -0.468408 -0.883512 -0
    outer loop
      vertex 36.6688 -8.36079 4
      vertex 34.9493 -7.4492 2
      vertex 36.6688 -8.36079 2
    endloop
  endfacet
  facet normal -0.267529 -0.96355 0
    outer loop
      vertex 36.6688 -8.36079 2
      vertex 38.544 -8.88144 4
      vertex 36.6688 -8.36079 4
    endloop
  endfacet
  facet normal -0.267529 -0.96355 -0
    outer loop
      vertex 38.544 -8.88144 4
      vertex 36.6688 -8.36079 2
      vertex 38.544 -8.88144 2
    endloop
  endfacet
  facet normal -0.647386 -0.762162 0
    outer loop
      vertex 33.466 -6.18929 2
      vertex 34.9493 -7.4492 4
      vertex 33.466 -6.18929 4
    endloop
  endfacet
  facet normal -0.647386 -0.762162 -0
    outer loop
      vertex 34.9493 -7.4492 4
      vertex 33.466 -6.18929 2
      vertex 34.9493 -7.4492 2
    endloop
  endfacet
  facet normal -0.796093 -0.605175 0
    outer loop
      vertex 33.466 -6.18929 2
      vertex 32.2883 -4.63998 4
      vertex 32.2883 -4.63998 2
    endloop
  endfacet
  facet normal -0.796093 -0.605175 0
    outer loop
      vertex 32.2883 -4.63998 4
      vertex 33.466 -6.18929 2
      vertex 33.466 -6.18929 4
    endloop
  endfacet
  facet normal -0.907576 -0.419888 0
    outer loop
      vertex 32.2883 -4.63998 2
      vertex 31.4711 -2.87371 4
      vertex 31.4711 -2.87371 2
    endloop
  endfacet
  facet normal -0.907576 -0.419888 0
    outer loop
      vertex 31.4711 -2.87371 4
      vertex 32.2883 -4.63998 2
      vertex 32.2883 -4.63998 4
    endloop
  endfacet
  facet normal 0.561187 -0.827689 0
    outer loop
      vertex 44.2157 -7.95161 2
      vertex 45.8265 -6.85946 4
      vertex 44.2157 -7.95161 4
    endloop
  endfacet
  facet normal 0.561187 -0.827689 0
    outer loop
      vertex 45.8265 -6.85946 4
      vertex 44.2157 -7.95161 2
      vertex 45.8265 -6.85946 2
    endloop
  endfacet
  facet normal 0.370138 -0.928977 0
    outer loop
      vertex 42.4078 -8.67195 2
      vertex 44.2157 -7.95161 4
      vertex 42.4078 -8.67195 4
    endloop
  endfacet
  facet normal 0.370138 -0.928977 0
    outer loop
      vertex 44.2157 -7.95161 4
      vertex 42.4078 -8.67195 2
      vertex 44.2157 -7.95161 2
    endloop
  endfacet
  facet normal 0.856857 -0.515554 0
    outer loop
      vertex 47.1648 -5.44657 4
      vertex 48.1682 -3.779 2
      vertex 48.1682 -3.779 4
    endloop
  endfacet
  facet normal 0.856857 -0.515554 0
    outer loop
      vertex 48.1682 -3.779 2
      vertex 47.1648 -5.44657 4
      vertex 47.1648 -5.44657 2
    endloop
  endfacet
  facet normal -0.951056 0.309017 0
    outer loop
      vertex 29.2404 2.28703 0
      vertex 29.951 4.4741 2
      vertex 29.951 4.4741 0
    endloop
  endfacet
  facet normal -0.951056 0.309017 0
    outer loop
      vertex 29.951 4.4741 2
      vertex 29.2404 2.28703 0
      vertex 29.2404 2.28703 2
    endloop
  endfacet
  facet normal 0.866025 0.500001 0
    outer loop
      vertex 50.049 4.4741 2
      vertex 48.8992 6.46564 0
      vertex 48.8992 6.46564 2
    endloop
  endfacet
  facet normal 0.866025 0.500001 0
    outer loop
      vertex 48.8992 6.46564 0
      vertex 50.049 4.4741 2
      vertex 50.049 4.4741 0
    endloop
  endfacet
  facet normal 0.951056 0.309017 0
    outer loop
      vertex 50.7596 2.28703 2
      vertex 50.049 4.4741 0
      vertex 50.049 4.4741 2
    endloop
  endfacet
  facet normal 0.951056 0.309017 0
    outer loop
      vertex 50.049 4.4741 0
      vertex 50.7596 2.28703 2
      vertex 50.7596 2.28703 0
    endloop
  endfacet
  facet normal 0.406737 0.913545 -0
    outer loop
      vertex 45.5 9.52628 0
      vertex 43.3992 10.4616 2
      vertex 45.5 9.52628 2
    endloop
  endfacet
  facet normal 0.406737 0.913545 0
    outer loop
      vertex 43.3992 10.4616 2
      vertex 45.5 9.52628 0
      vertex 43.3992 10.4616 0
    endloop
  endfacet
  facet normal -0.207912 0.978148 0
    outer loop
      vertex 38.8502 10.9397 0
      vertex 36.6008 10.4616 2
      vertex 38.8502 10.9397 2
    endloop
  endfacet
  facet normal -0.207912 0.978148 0
    outer loop
      vertex 36.6008 10.4616 2
      vertex 38.8502 10.9397 0
      vertex 36.6008 10.4616 0
    endloop
  endfacet
  facet normal -0.866025 0.500001 0
    outer loop
      vertex 29.951 4.4741 0
      vertex 31.1008 6.46564 2
      vertex 31.1008 6.46564 0
    endloop
  endfacet
  facet normal -0.866025 0.500001 0
    outer loop
      vertex 31.1008 6.46564 2
      vertex 29.951 4.4741 0
      vertex 29.951 4.4741 2
    endloop
  endfacet
  facet normal 0.994522 -0.104528 0
    outer loop
      vertex 50.7596 -2.28703 2
      vertex 51 0 0
      vertex 51 0 2
    endloop
  endfacet
  facet normal 0.994522 -0.104528 0
    outer loop
      vertex 51 0 0
      vertex 50.7596 -2.28703 2
      vertex 50.7596 -2.28703 0
    endloop
  endfacet
  facet normal 0.743145 0.66913 0
    outer loop
      vertex 48.8992 6.46564 2
      vertex 47.3604 8.17459 0
      vertex 47.3604 8.17459 2
    endloop
  endfacet
  facet normal 0.743145 0.66913 0
    outer loop
      vertex 47.3604 8.17459 0
      vertex 48.8992 6.46564 2
      vertex 48.8992 6.46564 0
    endloop
  endfacet
  facet normal 0 1 -0
    outer loop
      vertex 41.1498 10.9397 0
      vertex 38.8502 10.9397 2
      vertex 41.1498 10.9397 2
    endloop
  endfacet
  facet normal 0 1 0
    outer loop
      vertex 38.8502 10.9397 2
      vertex 41.1498 10.9397 0
      vertex 38.8502 10.9397 0
    endloop
  endfacet
  facet normal 0.587785 0.809017 -0
    outer loop
      vertex 47.3604 8.17459 0
      vertex 45.5 9.52628 2
      vertex 47.3604 8.17459 2
    endloop
  endfacet
  facet normal 0.587785 0.809017 0
    outer loop
      vertex 45.5 9.52628 2
      vertex 47.3604 8.17459 0
      vertex 45.5 9.52628 0
    endloop
  endfacet
  facet normal -0.994522 0.104528 0
    outer loop
      vertex 29 0 0
      vertex 29.2404 2.28703 2
      vertex 29.2404 2.28703 0
    endloop
  endfacet
  facet normal -0.994522 0.104528 0
    outer loop
      vertex 29.2404 2.28703 2
      vertex 29 0 0
      vertex 29 0 2
    endloop
  endfacet
  facet normal -0.743145 0.66913 0
    outer loop
      vertex 31.1008 6.46564 0
      vertex 32.6396 8.17459 2
      vertex 32.6396 8.17459 0
    endloop
  endfacet
  facet normal -0.743145 0.66913 0
    outer loop
      vertex 32.6396 8.17459 2
      vertex 31.1008 6.46564 0
      vertex 31.1008 6.46564 2
    endloop
  endfacet
  facet normal -0.406737 0.913545 0
    outer loop
      vertex 36.6008 10.4616 0
      vertex 34.5 9.52628 2
      vertex 36.6008 10.4616 2
    endloop
  endfacet
  facet normal -0.406737 0.913545 0
    outer loop
      vertex 34.5 9.52628 2
      vertex 36.6008 10.4616 0
      vertex 34.5 9.52628 0
    endloop
  endfacet
  facet normal -0.587785 0.809017 0
    outer loop
      vertex 34.5 9.52628 0
      vertex 32.6396 8.17459 2
      vertex 34.5 9.52628 2
    endloop
  endfacet
  facet normal -0.587785 0.809017 0
    outer loop
      vertex 32.6396 8.17459 2
      vertex 34.5 9.52628 0
      vertex 32.6396 8.17459 0
    endloop
  endfacet
  facet normal 0.994522 0.104528 0
    outer loop
      vertex 51 0 2
      vertex 50.7596 2.28703 0
      vertex 50.7596 2.28703 2
    endloop
  endfacet
  facet normal 0.994522 0.104528 0
    outer loop
      vertex 50.7596 2.28703 0
      vertex 51 0 2
      vertex 51 0 0
    endloop
  endfacet
  facet normal 0.587785 -0.809017 0
    outer loop
      vertex 45.5 -9.52628 0
      vertex 47.3604 -8.17459 2
      vertex 45.5 -9.52628 2
    endloop
  endfacet
  facet normal 0.587785 -0.809017 0
    outer loop
      vertex 47.3604 -8.17459 2
      vertex 45.5 -9.52628 0
      vertex 47.3604 -8.17459 0
    endloop
  endfacet
  facet normal 0.951056 -0.309017 0
    outer loop
      vertex 50.049 -4.4741 2
      vertex 50.7596 -2.28703 0
      vertex 50.7596 -2.28703 2
    endloop
  endfacet
  facet normal 0.951056 -0.309017 0
    outer loop
      vertex 50.7596 -2.28703 0
      vertex 50.049 -4.4741 2
      vertex 50.049 -4.4741 0
    endloop
  endfacet
  facet normal 0.207912 0.978148 -0
    outer loop
      vertex 43.3992 10.4616 0
      vertex 41.1498 10.9397 2
      vertex 43.3992 10.4616 2
    endloop
  endfacet
  facet normal 0.207912 0.978148 0
    outer loop
      vertex 41.1498 10.9397 2
      vertex 43.3992 10.4616 0
      vertex 41.1498 10.9397 0
    endloop
  endfacet
  facet normal 0 0 1
    outer loop
      vertex 49 0 2
      vertex 51 0 2
      vertex 50.7596 2.28703 2
    endloop
  endfacet
  facet normal 0 0 1
    outer loop
      vertex 48.7896 1.93473 2
      vertex 50.7596 2.28703 2
      vertex 50.049 4.4741 2
    endloop
  endfacet
  facet normal 0 0 1
    outer loop
      vertex 51 0 2
      vertex 49 0 2
      vertex 50.7596 -2.28703 2
    endloop
  endfacet
  facet normal -0 0 1
    outer loop
      vertex 48.7896 -1.93473 2
      vertex 50.7596 -2.28703 2
      vertex 49 0 2
    endloop
  endfacet
  facet normal 0 0 1
    outer loop
      vertex 48.1682 3.779 2
      vertex 50.049 4.4741 2
      vertex 48.8992 6.46564 2
    endloop
  endfacet
  facet normal 0 0 1
    outer loop
      vertex 50.7596 2.28703 2
      vertex 48.7896 1.93473 2
      vertex 49 0 2
    endloop
  endfacet
  facet normal 0 0 1
    outer loop
      vertex 50.049 4.4741 2
      vertex 48.1682 3.779 2
      vertex 48.7896 1.93473 2
    endloop
  endfacet
  facet normal 0 0 1
    outer loop
      vertex 47.1648 5.44657 2
      vertex 48.8992 6.46564 2
      vertex 47.3604 8.17459 2
    endloop
  endfacet
  facet normal 0 0 1
    outer loop
      vertex 48.8992 6.46564 2
      vertex 47.1648 5.44657 2
      vertex 48.1682 3.779 2
    endloop
  endfacet
  facet normal 0 0 1
    outer loop
      vertex 47.3604 8.17459 2
      vertex 45.8265 6.85946 2
      vertex 47.1648 5.44657 2
    endloop
  endfacet
  facet normal 0 0 1
    outer loop
      vertex 45.5 9.52628 2
      vertex 45.8265 6.85946 2
      vertex 47.3604 8.17459 2
    endloop
  endfacet
  facet normal 0 0 1
    outer loop
      vertex 45.5 9.52628 2
      vertex 44.2157 7.95161 2
      vertex 45.8265 6.85946 2
    endloop
  endfacet
  facet normal 0 0 1
    outer loop
      vertex 43.3992 10.4616 2
      vertex 44.2157 7.95161 2
      vertex 45.5 9.52628 2
    endloop
  endfacet
  facet normal 0 0 1
    outer loop
      vertex 43.3992 10.4616 2
      vertex 42.4078 8.67195 2
      vertex 44.2157 7.95161 2
    endloop
  endfacet
  facet normal 0 0 1
    outer loop
      vertex 41.1498 10.9397 2
      vertex 42.4078 8.67195 2
      vertex 43.3992 10.4616 2
    endloop
  endfacet
  facet normal 0 0 1
    outer loop
      vertex 41.1498 10.9397 2
      vertex 40.4873 8.9868 2
      vertex 42.4078 8.67195 2
    endloop
  endfacet
  facet normal -0 0 1
    outer loop
      vertex 38.8502 10.9397 2
      vertex 40.4873 8.9868 2
      vertex 41.1498 10.9397 2
    endloop
  endfacet
  facet normal 0 0 1
    outer loop
      vertex 38.8502 10.9397 2
      vertex 38.544 8.88144 2
      vertex 40.4873 8.9868 2
    endloop
  endfacet
  facet normal -0 0 1
    outer loop
      vertex 36.6008 10.4616 2
      vertex 38.544 8.88144 2
      vertex 38.8502 10.9397 2
    endloop
  endfacet
  facet normal 0 0 1
    outer loop
      vertex 38.544 8.88144 2
      vertex 36.6008 10.4616 2
      vertex 36.6688 8.36079 2
    endloop
  endfacet
  facet normal -0 0 1
    outer loop
      vertex 34.5 9.52628 2
      vertex 36.6688 8.36079 2
      vertex 36.6008 10.4616 2
    endloop
  endfacet
  facet normal 0 0 1
    outer loop
      vertex 36.6688 8.36079 2
      vertex 34.5 9.52628 2
      vertex 34.9493 7.4492 2
    endloop
  endfacet
  facet normal -0 0 1
    outer loop
      vertex 32.6396 8.17459 2
      vertex 34.9493 7.4492 2
      vertex 34.5 9.52628 2
    endloop
  endfacet
  facet normal 0 0 1
    outer loop
      vertex 34.9493 7.4492 2
      vertex 32.6396 8.17459 2
      vertex 33.466 6.18929 2
    endloop
  endfacet
  facet normal -0 0 1
    outer loop
      vertex 31.1008 6.46564 2
      vertex 33.466 6.18929 2
      vertex 32.6396 8.17459 2
    endloop
  endfacet
  facet normal 0 0 1
    outer loop
      vertex 33.466 6.18929 2
      vertex 31.1008 6.46564 2
      vertex 32.2883 4.63998 2
    endloop
  endfacet
  facet normal 0 0 1
    outer loop
      vertex 29.951 4.4741 2
      vertex 32.2883 4.63998 2
      vertex 31.1008 6.46564 2
    endloop
  endfacet
  facet normal 0 0 1
    outer loop
      vertex 32.2883 4.63998 2
      vertex 29.951 4.4741 2
      vertex 31.4711 2.87371 2
    endloop
  endfacet
  facet normal 0 0 1
    outer loop
      vertex 31.4711 2.87371 2
      vertex 29.2404 2.28703 2
      vertex 31.0528 0.973071 2
    endloop
  endfacet
  facet normal 0 0 1
    outer loop
      vertex 29.2404 2.28703 2
      vertex 31.4711 2.87371 2
      vertex 29.951 4.4741 2
    endloop
  endfacet
  facet normal 0 0 1
    outer loop
      vertex 50.7596 -2.28703 2
      vertex 48.7896 -1.93473 2
      vertex 50.049 -4.4741 2
    endloop
  endfacet
  facet normal -0 0 1
    outer loop
      vertex 48.1682 -3.779 2
      vertex 50.049 -4.4741 2
      vertex 48.7896 -1.93473 2
    endloop
  endfacet
  facet normal 0 0 1
    outer loop
      vertex 50.049 -4.4741 2
      vertex 48.1682 -3.779 2
      vertex 48.8992 -6.46564 2
    endloop
  endfacet
  facet normal -0 0 1
    outer loop
      vertex 47.1648 -5.44657 2
      vertex 48.8992 -6.46564 2
      vertex 48.1682 -3.779 2
    endloop
  endfacet
  facet normal 0 0 1
    outer loop
      vertex 48.8992 -6.46564 2
      vertex 47.1648 -5.44657 2
      vertex 47.3604 -8.17459 2
    endloop
  endfacet
  facet normal -0 0 1
    outer loop
      vertex 45.8265 -6.85946 2
      vertex 47.3604 -8.17459 2
      vertex 47.1648 -5.44657 2
    endloop
  endfacet
  facet normal 0 0 1
    outer loop
      vertex 45.8265 -6.85946 2
      vertex 45.5 -9.52628 2
      vertex 47.3604 -8.17459 2
    endloop
  endfacet
  facet normal -0 0 1
    outer loop
      vertex 44.2157 -7.95161 2
      vertex 45.5 -9.52628 2
      vertex 45.8265 -6.85946 2
    endloop
  endfacet
  facet normal 0 0 1
    outer loop
      vertex 44.2157 -7.95161 2
      vertex 43.3992 -10.4616 2
      vertex 45.5 -9.52628 2
    endloop
  endfacet
  facet normal -0 0 1
    outer loop
      vertex 42.4078 -8.67195 2
      vertex 43.3992 -10.4616 2
      vertex 44.2157 -7.95161 2
    endloop
  endfacet
  facet normal 0 0 1
    outer loop
      vertex 42.4078 -8.67195 2
      vertex 41.1498 -10.9397 2
      vertex 43.3992 -10.4616 2
    endloop
  endfacet
  facet normal -0 0 1
    outer loop
      vertex 40.4873 -8.9868 2
      vertex 41.1498 -10.9397 2
      vertex 42.4078 -8.67195 2
    endloop
  endfacet
  facet normal 0 0 1
    outer loop
      vertex 40.4873 -8.9868 2
      vertex 38.8502 -10.9397 2
      vertex 41.1498 -10.9397 2
    endloop
  endfacet
  facet normal 0 0 1
    outer loop
      vertex 38.544 -8.88144 2
      vertex 38.8502 -10.9397 2
      vertex 40.4873 -8.9868 2
    endloop
  endfacet
  facet normal 0 0 1
    outer loop
      vertex 36.6008 -10.4616 2
      vertex 38.544 -8.88144 2
      vertex 36.6688 -8.36079 2
    endloop
  endfacet
  facet normal 0 0 1
    outer loop
      vertex 38.544 -8.88144 2
      vertex 36.6008 -10.4616 2
      vertex 38.8502 -10.9397 2
    endloop
  endfacet
  facet normal 0 0 1
    outer loop
      vertex 34.5 -9.52628 2
      vertex 36.6688 -8.36079 2
      vertex 34.9493 -7.4492 2
    endloop
  endfacet
  facet normal 0 0 1
    outer loop
      vertex 36.6688 -8.36079 2
      vertex 34.5 -9.52628 2
      vertex 36.6008 -10.4616 2
    endloop
  endfacet
  facet normal 0 0 1
    outer loop
      vertex 32.6396 -8.17459 2
      vertex 34.9493 -7.4492 2
      vertex 33.466 -6.18929 2
    endloop
  endfacet
  facet normal 0 0 1
    outer loop
      vertex 34.9493 -7.4492 2
      vertex 32.6396 -8.17459 2
      vertex 34.5 -9.52628 2
    endloop
  endfacet
  facet normal 0 0 1
    outer loop
      vertex 31.1008 -6.46564 2
      vertex 33.466 -6.18929 2
      vertex 32.2883 -4.63998 2
    endloop
  endfacet
  facet normal -0 0 1
    outer loop
      vertex 29.951 -4.4741 2
      vertex 32.2883 -4.63998 2
      vertex 31.4711 -2.87371 2
    endloop
  endfacet
  facet normal 0 0 1
    outer loop
      vertex 33.466 -6.18929 2
      vertex 31.1008 -6.46564 2
      vertex 32.6396 -8.17459 2
    endloop
  endfacet
  facet normal -0 0 1
    outer loop
      vertex 29.2404 -2.28703 2
      vertex 31.4711 -2.87371 2
      vertex 31.0528 -0.973071 2
    endloop
  endfacet
  facet normal 0 0 1
    outer loop
      vertex 29 0 2
      vertex 31.0528 0.973071 2
      vertex 29.2404 2.28703 2
    endloop
  endfacet
  facet normal 0 0 1
    outer loop
      vertex 32.2883 -4.63998 2
      vertex 29.951 -4.4741 2
      vertex 31.1008 -6.46564 2
    endloop
  endfacet
  facet normal 0 0 1
    outer loop
      vertex 31.0528 0.973071 2
      vertex 29 0 2
      vertex 31.0528 -0.973071 2
    endloop
  endfacet
  facet normal 0 0 1
    outer loop
      vertex 31.4711 -2.87371 2
      vertex 29.2404 -2.28703 2
      vertex 29.951 -4.4741 2
    endloop
  endfacet
  facet normal 0 0 1
    outer loop
      vertex 31.0528 -0.973071 2
      vertex 29 0 2
      vertex 29.2404 -2.28703 2
    endloop
  endfacet
  facet normal -0.207912 -0.978148 0
    outer loop
      vertex 36.6008 -10.4616 0
      vertex 38.8502 -10.9397 2
      vertex 36.6008 -10.4616 2
    endloop
  endfacet
  facet normal -0.207912 -0.978148 -0
    outer loop
      vertex 38.8502 -10.9397 2
      vertex 36.6008 -10.4616 0
      vertex 38.8502 -10.9397 0
    endloop
  endfacet
  facet normal -0.994522 -0.104528 0
    outer loop
      vertex 29.2404 -2.28703 0
      vertex 29 0 2
      vertex 29 0 0
    endloop
  endfacet
  facet normal -0.994522 -0.104528 0
    outer loop
      vertex 29 0 2
      vertex 29.2404 -2.28703 0
      vertex 29.2404 -2.28703 2
    endloop
  endfacet
  facet normal 0.207912 -0.978148 0
    outer loop
      vertex 41.1498 -10.9397 0
      vertex 43.3992 -10.4616 2
      vertex 41.1498 -10.9397 2
    endloop
  endfacet
  facet normal 0.207912 -0.978148 0
    outer loop
      vertex 43.3992 -10.4616 2
      vertex 41.1498 -10.9397 0
      vertex 43.3992 -10.4616 0
    endloop
  endfacet
  facet normal 0.406737 -0.913545 0
    outer loop
      vertex 43.3992 -10.4616 0
      vertex 45.5 -9.52628 2
      vertex 43.3992 -10.4616 2
    endloop
  endfacet
  facet normal 0.406737 -0.913545 0
    outer loop
      vertex 45.5 -9.52628 2
      vertex 43.3992 -10.4616 0
      vertex 45.5 -9.52628 0
    endloop
  endfacet
  facet normal 0.743145 -0.66913 0
    outer loop
      vertex 47.3604 -8.17459 2
      vertex 48.8992 -6.46564 0
      vertex 48.8992 -6.46564 2
    endloop
  endfacet
  facet normal 0.743145 -0.66913 0
    outer loop
      vertex 48.8992 -6.46564 0
      vertex 47.3604 -8.17459 2
      vertex 47.3604 -8.17459 0
    endloop
  endfacet
  facet normal 0.866025 -0.500001 0
    outer loop
      vertex 48.8992 -6.46564 2
      vertex 50.049 -4.4741 0
      vertex 50.049 -4.4741 2
    endloop
  endfacet
  facet normal 0.866025 -0.500001 0
    outer loop
      vertex 50.049 -4.4741 0
      vertex 48.8992 -6.46564 2
      vertex 48.8992 -6.46564 0
    endloop
  endfacet
  facet normal -0.587785 -0.809017 0
    outer loop
      vertex 32.6396 -8.17459 0
      vertex 34.5 -9.52628 2
      vertex 32.6396 -8.17459 2
    endloop
  endfacet
  facet normal -0.587785 -0.809017 -0
    outer loop
      vertex 34.5 -9.52628 2
      vertex 32.6396 -8.17459 0
      vertex 34.5 -9.52628 0
    endloop
  endfacet
  facet normal 0 -1 0
    outer loop
      vertex 38.8502 -10.9397 0
      vertex 41.1498 -10.9397 2
      vertex 38.8502 -10.9397 2
    endloop
  endfacet
  facet normal 0 -1 -0
    outer loop
      vertex 41.1498 -10.9397 2
      vertex 38.8502 -10.9397 0
      vertex 41.1498 -10.9397 0
    endloop
  endfacet
  facet normal -0.406737 -0.913545 0
    outer loop
      vertex 34.5 -9.52628 0
      vertex 36.6008 -10.4616 2
      vertex 34.5 -9.52628 2
    endloop
  endfacet
  facet normal -0.406737 -0.913545 -0
    outer loop
      vertex 36.6008 -10.4616 2
      vertex 34.5 -9.52628 0
      vertex 36.6008 -10.4616 0
    endloop
  endfacet
  facet normal -0.951056 -0.309017 0
    outer loop
      vertex 29.951 -4.4741 0
      vertex 29.2404 -2.28703 2
      vertex 29.2404 -2.28703 0
    endloop
  endfacet
  facet normal -0.951056 -0.309017 0
    outer loop
      vertex 29.2404 -2.28703 2
      vertex 29.951 -4.4741 0
      vertex 29.951 -4.4741 2
    endloop
  endfacet
  facet normal -0.743145 -0.66913 0
    outer loop
      vertex 32.6396 -8.17459 0
      vertex 31.1008 -6.46564 2
      vertex 31.1008 -6.46564 0
    endloop
  endfacet
  facet normal -0.743145 -0.66913 0
    outer loop
      vertex 31.1008 -6.46564 2
      vertex 32.6396 -8.17459 0
      vertex 32.6396 -8.17459 2
    endloop
  endfacet
  facet normal -0.866025 -0.500001 0
    outer loop
      vertex 31.1008 -6.46564 0
      vertex 29.951 -4.4741 2
      vertex 29.951 -4.4741 0
    endloop
  endfacet
  facet normal -0.866025 -0.500001 0
    outer loop
      vertex 29.951 -4.4741 2
      vertex 31.1008 -6.46564 0
      vertex 31.1008 -6.46564 2
    endloop
  endfacet
endsolid OpenSCAD_Model
